<svg width="318" height="318" viewBox="0 0 318 318" fill="none" xmlns="http://www.w3.org/2000/svg">
<g clip-path="url(#clip0_256_69)">
<path d="M159 93.5695V65.4439C167.912 65.0965 175.034 57.7745 175.034 48.7823C175.034 39.7901 167.912 32.4681 159 32.1207V0H40.8189C18.2783 0 0 18.2783 0 40.8189V159H32.1073C32.4547 150.088 39.7767 142.966 48.7689 142.966C57.7611 142.966 65.0831 150.088 65.4305 159H93.5561C93.9035 150.088 101.226 142.966 110.218 142.966C119.21 142.966 126.532 150.088 126.879 159H158.987V126.893C167.899 126.545 175.02 119.223 175.02 110.231C175.02 101.239 167.899 93.9169 158.987 93.5695H159Z" fill="#720D75"/>
<path d="M110.231 142.966C101.239 142.966 93.9169 150.088 93.5695 159H65.4439C65.0965 150.088 57.7745 142.966 48.7823 142.966C39.7901 142.966 32.4681 150.088 32.1207 159H0V277.181C0 299.722 18.2783 318 40.8189 318H159V285.893C150.088 285.545 142.966 278.223 142.966 269.231C142.966 260.239 150.088 252.917 159 252.569V224.444C150.088 224.096 142.966 216.774 142.966 207.782C142.966 198.79 150.088 191.468 159 191.121V159.013H126.893C126.545 150.101 119.223 142.98 110.231 142.98V142.966Z" fill="#55EDB6"/>
<path d="M277.181 0H159V32.1073C167.912 32.4547 175.034 39.7767 175.034 48.7689C175.034 57.7611 167.912 65.0831 159 65.4305V93.5561C167.912 93.9035 175.034 101.226 175.034 110.218C175.034 119.21 167.912 126.532 159 126.879V158.987H191.107C191.455 167.899 198.777 175.02 207.769 175.02C216.761 175.02 224.083 167.899 224.43 158.987H252.556C252.904 167.899 260.226 175.02 269.218 175.02C278.21 175.02 285.532 167.899 285.879 158.987H317.987V40.8189C317.987 18.2783 299.708 0 277.168 0H277.181Z" fill="#FFB79F"/>
<path d="M318 277.181V159H285.892C285.545 167.912 278.223 175.034 269.231 175.034C260.239 175.034 252.917 167.912 252.569 159H224.444C224.096 167.912 216.774 175.034 207.782 175.034C198.79 175.034 191.468 167.912 191.12 159H159.013V191.107C150.101 191.455 142.979 198.777 142.979 207.769C142.979 216.761 150.101 224.083 159.013 224.43V252.556C150.101 252.904 142.979 260.226 142.979 269.218C142.979 278.21 150.101 285.532 159.013 285.879V317.987H277.194C299.735 317.987 318.013 299.708 318.013 277.168L318 277.181Z" fill="#F4DE16"/>
<path d="M56.8261 107.532C54.1272 104.967 52.791 101.373 52.791 96.7629V58.2823C52.791 53.7928 54.0871 50.2922 56.6925 47.7936C59.2846 45.295 62.8922 44.0391 67.5152 44.0391H97.4313C99.3553 44.0391 100.825 44.4666 101.854 45.3351C102.883 46.2036 103.39 47.4328 103.39 49.0362C103.39 50.6396 102.856 51.7753 101.8 52.6438C100.745 53.5123 99.2885 53.9398 97.4179 53.9398H69.7065C68.4238 53.9398 67.4083 54.354 66.6735 55.1958C65.9386 56.0376 65.5645 57.1866 65.5645 58.6564V72.0311H90.0959C92.0199 72.0311 93.4897 72.4586 94.5185 73.3271C95.5473 74.1956 96.055 75.4249 96.055 77.0282C96.055 78.6316 95.5206 79.7673 94.465 80.6358C93.4095 81.5043 91.9531 81.9318 90.0825 81.9318H65.5511V96.7496C65.5511 98.2193 65.9252 99.3818 66.6601 100.21C67.395 101.039 68.4104 101.466 69.6931 101.466H99.5156C101.44 101.466 102.909 101.894 103.938 102.762C104.967 103.631 105.475 104.86 105.475 106.463C105.475 108.067 104.94 109.202 103.885 110.071C102.829 110.939 101.373 111.367 99.5023 111.367H68.1432C63.2663 111.367 59.4851 110.084 56.7861 107.519L56.8261 107.532Z" fill="#F4DE16"/>
<path d="M99.5419 114.721H68.1828C62.4508 114.721 57.8545 113.117 54.5275 109.951C51.1605 106.744 49.4502 102.308 49.4502 96.7495V58.2688C49.4502 52.8575 51.107 48.515 54.3672 45.3751C57.6006 42.2619 62.0232 40.6853 67.5014 40.6853H97.4174C100.143 40.6853 102.361 41.3935 103.991 42.7697C105.234 43.8252 106.717 45.7626 106.717 49.0228C106.717 51.5748 105.742 53.7126 103.898 55.2224C102.228 56.5853 100.05 57.2801 97.4041 57.2801H69.6926C69.2784 57.2801 69.1983 57.3736 69.1582 57.4003C68.9845 57.5874 68.891 58.0551 68.891 58.6563V68.6907H90.082C92.8078 68.6907 95.0257 69.3988 96.6558 70.7751C97.8984 71.8306 99.3815 73.768 99.3815 77.0282C99.3815 79.5802 98.4062 81.718 96.5757 83.2145C94.9055 84.5773 92.7276 85.2721 90.082 85.2721H68.891V96.7495C68.891 97.3374 68.9845 97.805 69.1582 97.9921C69.1849 98.0322 69.2651 98.1124 69.6926 98.1124H99.5152C102.241 98.1124 104.459 98.8205 106.089 100.197C107.332 101.252 108.815 103.19 108.815 106.45C108.815 109.002 107.839 111.14 105.995 112.636C104.325 113.999 102.147 114.694 99.5018 114.694L99.5419 114.721ZM67.5014 47.3793C63.7468 47.3793 60.9677 48.3013 58.9902 50.1986C57.0528 52.0558 56.1175 54.7014 56.1175 58.2822V96.7629C56.1175 100.464 57.1062 103.19 59.1238 105.114C61.1948 107.091 64.1477 108.04 68.1694 108.04H99.5285C100.25 108.04 101.239 107.946 101.787 107.492C101.934 107.372 102.147 107.198 102.147 106.477C102.147 105.621 101.893 105.421 101.8 105.327C101.412 104.993 100.597 104.82 99.5285 104.82H69.706C66.8734 104.82 65.1364 103.524 64.1744 102.441C62.8917 100.985 62.2236 99.0744 62.2236 96.7629V78.6048H90.0954C90.8303 78.6048 91.8057 78.5113 92.3535 78.057C92.5005 77.9367 92.7142 77.763 92.7142 77.0282C92.7142 76.173 92.4604 75.9593 92.3535 75.8791C91.966 75.5584 91.1376 75.3714 90.082 75.3714H62.2103V58.6563C62.2103 56.3448 62.865 54.4341 64.161 52.9777C65.5373 51.4145 67.4479 50.5994 69.6926 50.5994H97.4041C98.1389 50.5994 99.1143 50.5059 99.6621 50.0516C99.8091 49.9314 100.023 49.7577 100.023 49.0361C100.023 48.181 99.769 47.9806 99.6621 47.8871C99.2746 47.553 98.4596 47.3793 97.3907 47.3793H67.4747H67.5014Z" fill="#F4DE16"/>
<path d="M216.494 107.158C213.795 104.593 212.459 100.998 212.459 96.3887V57.908C212.459 53.4186 213.755 49.9179 216.36 47.4193C218.953 44.9208 222.56 43.6648 227.183 43.6648H240.651C248.027 43.6648 254.414 45.0143 259.798 47.6999C265.183 50.3856 269.312 54.2737 272.157 59.3377C275.017 64.4016 276.433 70.4276 276.433 77.4289C276.433 84.4303 275.003 90.4295 272.157 95.4667C269.298 100.504 265.196 104.352 259.838 107.011C254.48 109.67 248.08 111.006 240.651 111.006H227.851C222.974 111.006 219.193 109.723 216.494 107.158ZM239.676 101.092C247.693 101.092 253.652 99.1545 257.567 95.2663C261.482 91.3915 263.433 85.4324 263.433 77.4156C263.433 69.3987 261.455 63.4129 257.513 59.4713C253.572 55.5297 247.626 53.5522 239.663 53.5522H229.374C228.092 53.5522 227.076 53.9664 226.341 54.8082C225.607 55.6499 225.232 56.799 225.232 58.2687V96.3619C225.232 97.8317 225.607 98.9941 226.341 99.8225C227.076 100.651 228.092 101.079 229.374 101.079H239.663L239.676 101.092Z" fill="#7E1A37"/>
<path d="M240.638 114.346H227.838C222.093 114.346 217.51 112.743 214.183 109.576C210.816 106.37 209.105 101.934 209.105 96.3887V57.908C209.105 52.4966 210.762 48.1542 214.022 45.0143C217.256 41.9011 221.678 40.3245 227.157 40.3245H240.625C248.495 40.3245 255.429 41.8076 261.268 44.7203C267.241 47.6999 271.877 52.0691 275.044 57.7076C278.17 63.2659 279.76 69.8931 279.76 77.4289C279.76 84.9647 278.17 91.5919 275.044 97.1102C271.864 102.709 267.254 107.051 261.308 110.004C255.509 112.89 248.548 114.346 240.625 114.346H240.638ZM227.17 47.0051C223.415 47.0051 220.636 47.9271 218.659 49.8244C216.721 51.6816 215.786 54.3272 215.786 57.908V96.3887C215.786 100.09 216.775 102.815 218.792 104.74C220.863 106.717 223.816 107.666 227.838 107.666H240.638C247.519 107.666 253.479 106.436 258.342 104.018C263.125 101.64 266.693 98.2993 269.232 93.8233C271.784 89.3205 273.08 83.8023 273.08 77.4289C273.08 71.0556 271.784 65.524 269.232 60.9811C266.693 56.465 263.112 53.0979 258.289 50.6929C253.398 48.2477 247.453 47.0051 240.638 47.0051H227.17ZM239.676 104.432H229.388C226.555 104.432 224.818 103.136 223.856 102.054C222.574 100.597 221.906 98.6868 221.906 96.3753V58.2821C221.906 55.9706 222.56 54.0599 223.856 52.6035C225.233 51.0403 227.143 50.2252 229.388 50.2252H239.676C248.508 50.2252 255.309 52.5501 259.879 57.1197C264.448 61.6893 266.773 68.5303 266.773 77.4289C266.773 86.3276 264.462 93.1285 259.919 97.6446C255.376 102.147 248.562 104.432 239.676 104.432ZM229.388 56.9059C228.974 56.9059 228.894 56.9994 228.854 57.0261C228.68 57.2132 228.586 57.6808 228.586 58.2821V96.3753C228.586 96.9632 228.68 97.4308 228.854 97.6179C228.88 97.658 228.96 97.7382 229.388 97.7382H239.676C246.744 97.7382 251.969 96.1081 255.215 92.888C258.449 89.6813 260.092 84.4703 260.092 77.4156C260.092 70.3608 258.436 65.1098 255.149 61.8362C251.875 58.5627 246.664 56.8925 239.663 56.8925H229.375L229.388 56.9059Z" fill="#7E1A37"/>
<path d="M264.073 263.005C264.073 264.541 263.432 265.864 262.149 266.946C261.12 267.775 259.971 268.202 258.689 268.202C256.952 268.202 255.348 267.467 253.879 265.984L240.023 251.166L226.074 265.984C224.59 267.454 223.001 268.202 221.264 268.202C219.981 268.202 218.818 267.788 217.803 266.946C216.52 265.851 215.879 264.541 215.879 263.005C215.879 261.602 216.387 260.372 217.415 259.344L232.514 243.283L218.658 228.559C217.442 227.21 216.828 225.833 216.828 224.417C216.828 222.88 217.469 221.558 218.752 220.475C219.647 219.647 220.769 219.219 222.119 219.219C223.856 219.219 225.553 220.048 227.223 221.718L240.023 235.28L252.716 221.718C254.386 220.048 256.083 219.219 257.82 219.219C259.17 219.219 260.292 219.634 261.187 220.475C262.47 221.571 263.111 222.88 263.111 224.417C263.111 225.833 262.497 227.21 261.281 228.559L247.425 243.283L262.523 259.344C263.552 260.372 264.06 261.588 264.06 263.005H264.073Z" fill="#9F0CA2"/>
<path d="M258.675 271.543C256.03 271.543 253.625 270.474 251.5 268.349L239.996 256.057L228.492 268.282C226.301 270.474 223.883 271.543 221.25 271.543C219.179 271.543 217.309 270.875 215.679 269.538C213.594 267.775 212.525 265.53 212.525 263.005C212.525 260.72 213.394 258.636 215.037 256.992L227.918 243.283L216.213 230.857C214.383 228.84 213.474 226.689 213.474 224.431C213.474 221.932 214.53 219.701 216.52 217.99C218.017 216.628 219.954 215.906 222.105 215.906C224.751 215.906 227.25 217.082 229.561 219.38L239.983 230.43L250.258 219.46C252.65 217.068 255.161 215.906 257.794 215.906C259.945 215.906 261.869 216.628 263.379 217.99C265.37 219.714 266.425 221.932 266.425 224.431C266.425 226.689 265.516 228.826 263.739 230.804L251.995 243.283L264.942 257.059C266.519 258.636 267.387 260.72 267.387 263.005C267.387 265.53 266.318 267.775 264.287 269.498C262.59 270.875 260.72 271.543 258.662 271.543H258.675ZM240.023 246.29L256.311 263.7C257.339 264.728 258.154 264.849 258.675 264.849C259.197 264.849 259.597 264.702 260.038 264.341C260.666 263.806 260.72 263.366 260.72 262.991C260.72 262.47 260.559 262.096 260.159 261.695L242.829 243.27L258.836 226.261C259.424 225.606 259.758 224.965 259.758 224.417C259.758 224.043 259.704 223.602 259.01 223.014L258.903 222.921C258.702 222.734 258.422 222.56 257.807 222.56C257.005 222.56 256.083 223.068 255.068 224.083L240.023 240.157L224.791 224.003C223.842 223.068 222.921 222.547 222.119 222.547C221.491 222.547 221.224 222.72 221.023 222.907L220.916 223.001C220.222 223.589 220.168 224.03 220.168 224.404C220.168 224.952 220.489 225.593 221.13 226.301L237.097 243.257L219.834 261.615C219.366 262.083 219.206 262.457 219.206 262.978C219.206 263.352 219.26 263.793 219.954 264.381C220.328 264.688 220.743 264.835 221.25 264.835C221.758 264.835 222.586 264.702 223.695 263.593L240.01 246.263L240.023 246.29Z" fill="#9F0CA2"/>
<path d="M67.8226 265.303C63.3064 262.871 59.8058 259.384 57.3339 254.868C54.8621 250.352 53.6328 245.007 53.6328 238.847V205.471C53.6328 203.68 54.2073 202.264 55.3698 201.235C56.5189 200.206 58.0688 199.699 59.9928 199.699C61.9168 199.699 63.4668 200.233 64.6559 201.289C65.8451 202.344 66.433 203.747 66.433 205.471V239.141C66.433 245.488 67.9428 250.365 70.9491 253.759C73.9688 257.153 78.2979 258.863 83.9363 258.863C89.5748 258.863 93.8237 257.153 96.8701 253.719C99.9165 250.285 101.44 245.435 101.44 239.141V205.471C101.44 203.734 102.028 202.344 103.217 201.289C104.406 200.233 105.956 199.699 107.88 199.699C109.804 199.699 111.34 200.206 112.503 201.235C113.652 202.264 114.24 203.68 114.24 205.471V238.847C114.24 244.807 112.971 250.071 110.445 254.627C107.92 259.183 104.339 262.711 99.7161 265.209C95.0931 267.708 89.7485 268.964 83.6558 268.964C77.563 268.964 72.3521 267.748 67.8359 265.303H67.8226Z" fill="#072D65"/>
<path d="M83.6553 272.304C77.0949 272.304 71.2426 270.941 66.2454 268.242C61.1681 265.503 57.1864 261.535 54.4073 256.471C51.6816 251.474 50.292 245.541 50.292 238.847V205.471C50.292 202.732 51.2807 200.407 53.138 198.737C54.915 197.16 57.2132 196.358 59.979 196.358C62.7448 196.358 65.0563 197.173 66.8734 198.79C68.7707 200.474 69.7728 202.785 69.7728 205.471V239.141C69.7728 244.62 71.0154 248.788 73.4472 251.541C75.8255 254.213 79.246 255.522 83.9359 255.522C88.6257 255.522 91.9794 254.2 94.3844 251.501C96.8563 248.721 98.1122 244.553 98.1122 239.141V205.471C98.1122 202.785 99.1143 200.474 101.012 198.79C102.815 197.173 105.14 196.358 107.893 196.358C110.645 196.358 112.957 197.16 114.734 198.737C116.604 200.394 117.593 202.732 117.593 205.471V238.847C117.593 245.354 116.177 251.22 113.371 256.244C110.538 261.335 106.476 265.343 101.319 268.136C96.2283 270.888 90.2825 272.291 83.6686 272.291L83.6553 272.304ZM59.9923 203.039C58.3756 203.039 57.7877 203.56 57.5873 203.734C57.4002 203.894 56.9727 204.282 56.9727 205.471V238.847C56.9727 244.406 58.0817 249.256 60.2729 253.264C62.4375 257.246 65.4304 260.226 69.4121 262.363C73.4205 264.528 78.2038 265.624 83.6553 265.624C89.1067 265.624 94.0237 264.501 98.1256 262.27C102.214 260.052 105.287 257.032 107.519 252.997C109.763 248.962 110.899 244.205 110.899 238.847V205.471C110.899 204.282 110.471 203.894 110.284 203.734C110.097 203.56 109.509 203.039 107.893 203.039C106.276 203.039 105.661 203.6 105.448 203.774C105.1 204.081 104.78 204.495 104.78 205.471V239.141C104.78 246.236 102.962 251.888 99.3682 255.937C95.6805 260.092 90.4829 262.203 83.9359 262.203C77.3888 262.203 72.1111 260.105 68.4501 255.977C64.8959 251.968 63.0922 246.303 63.0922 239.141V205.471C63.0922 204.509 62.7715 204.081 62.4241 203.774C62.2103 203.587 61.5957 203.039 59.979 203.039H59.9923Z" fill="#072D65"/>
</g>
<defs>
<clipPath id="clip0_256_69">
<rect width="318" height="318" fill="white"/>
</clipPath>
</defs>
</svg>
