<svg width="170" height="170" viewBox="0 0 170 170" fill="none" xmlns="http://www.w3.org/2000/svg">
<path d="M68.3329 84.0602C67.7985 79.2161 63.7298 75.5117 58.7848 75.5117C53.8397 75.5117 49.764 79.2161 49.2367 84.0602H35.5558C35.0214 79.2161 30.9528 75.5117 26.0077 75.5117C21.0627 75.5117 16.9869 79.2161 16.4596 84.0602H0.712402V21.7631C0.712402 10.1585 10.1536 0.712402 21.761 0.712402H84.0801V17.8023L84.7642 17.8308C89.1748 18.0089 92.6306 21.5992 92.6306 26.0088C92.6306 30.4184 89.1748 34.0088 84.7642 34.1869L84.0801 34.2154V50.5786L84.7642 50.6071C89.1748 50.7852 92.6306 54.3756 92.6306 58.7852C92.6306 63.1948 89.1748 66.7851 84.7642 66.9632L84.0801 66.9917V84.0816H68.3329V84.0602Z" fill="white"/>
<path d="M83.3677 1.42475V18.4861L84.7358 18.5431C88.7617 18.6998 91.9182 21.9839 91.9182 26.0088C91.9182 30.0337 88.7617 33.3106 84.7358 33.4745L83.3677 33.5315V51.2696L84.7358 51.3266C88.7617 51.4833 91.9182 54.7674 91.9182 58.7923C91.9182 62.8172 88.7617 66.0941 84.7358 66.258L83.3677 66.3149V83.3763H68.9529C68.1121 78.4823 63.8796 74.8278 58.7849 74.8278C53.6902 74.8278 49.4577 78.4823 48.6169 83.3763H36.1759C35.3351 78.4823 31.1026 74.8278 26.0079 74.8278C20.9132 74.8278 16.6807 78.4823 15.8399 83.3763H1.42509V21.763C1.42509 10.5503 10.5528 1.42475 21.7682 1.42475H83.3677ZM84.7928 0H21.7682C9.74761 0 0 9.74528 0 21.763V84.7726H17.1224C17.3077 80.021 21.2125 76.2241 26.0079 76.2241C30.8033 76.2241 34.708 80.021 34.8933 84.7726H49.8924C50.0776 80.021 53.9824 76.2241 58.7778 76.2241C63.5732 76.2241 67.478 80.021 67.6632 84.7726H84.7857V67.6542C89.5384 67.469 93.3362 63.5652 93.3362 58.7709C93.3362 53.9766 89.5384 50.0728 84.7857 49.8876V34.8921C89.5384 34.7069 93.3362 30.8031 93.3362 26.0088C93.3362 21.2145 89.5384 17.3107 84.7857 17.1255V0.00712391L84.7928 0Z" fill="black"/>
<path d="M21.7681 168.833C10.1536 168.833 0.712402 159.387 0.712402 147.782V85.485H17.8063L17.8348 84.8011C18.013 80.3915 21.6042 76.9365 26.0149 76.9365C30.4255 76.9365 34.0167 80.3915 34.1949 84.8011L34.2234 85.485H50.5905L50.619 84.8011C50.7972 80.3915 54.3884 76.9365 58.799 76.9365C63.2097 76.9365 66.8009 80.3915 66.979 84.8011L67.0075 85.485H84.1015V101.229C79.2562 101.763 75.551 105.83 75.551 110.774C75.551 115.718 79.2562 119.793 84.1015 120.32V133.998C79.2562 134.532 75.551 138.6 75.551 143.544C75.551 148.487 79.2562 152.562 84.1015 153.089V168.833H21.7895H21.7681Z" fill="white"/>
<path d="M58.7849 77.6489C62.8108 77.6489 66.0885 80.8047 66.2524 84.8296L66.3094 86.1974H83.3749V100.609C78.4797 101.449 74.8243 105.681 74.8243 110.774C74.8243 115.868 78.4797 120.099 83.3749 120.94V133.378C78.4797 134.219 74.8243 138.45 74.8243 143.544C74.8243 148.637 78.4797 152.869 83.3749 153.709V168.12H21.7754C10.5599 168.12 1.43223 158.995 1.43223 147.782V86.1974H18.4977L18.5547 84.8296C18.7114 80.8047 21.9963 77.6489 26.0221 77.6489C30.048 77.6489 33.3257 80.8047 33.4896 84.8296L33.5466 86.1974H51.289L51.346 84.8296C51.5027 80.8047 54.7876 77.6489 58.8134 77.6489M58.8134 76.2241C54.018 76.2241 50.1133 80.0211 49.928 84.7726H34.929C34.7437 80.0211 30.8389 76.2241 26.0435 76.2241C21.2481 76.2241 17.3434 80.0211 17.1581 84.7726H0.0356445V147.782C0.0356445 159.8 9.78325 169.545 21.8039 169.545H84.8285V152.427C80.0758 152.242 76.2779 148.338 76.2779 143.544C76.2779 138.749 80.0758 134.845 84.8285 134.66V119.665C80.0758 119.48 76.2779 115.576 76.2779 110.781C76.2779 105.987 80.0758 102.083 84.8285 101.898V84.7797H67.706C67.5207 80.0282 63.616 76.2312 58.8206 76.2312L58.8134 76.2241Z" fill="black"/>
<path d="M143.578 92.6087C139.167 92.6087 135.576 89.1537 135.398 84.7441L135.369 84.0602H119.002L118.974 84.7441C118.796 89.1537 115.204 92.6087 110.794 92.6087C106.383 92.6087 102.792 89.1537 102.614 84.7441L102.585 84.0602H85.4912V68.3167C90.3365 67.7825 94.0417 63.7148 94.0417 58.7709C94.0417 53.8271 90.3365 49.7523 85.4912 49.2251V35.5475C90.3365 35.0132 94.0417 30.9456 94.0417 26.0017C94.0417 21.0578 90.3365 16.983 85.4912 16.4559V0.712402H147.803C159.411 0.712402 168.859 10.1585 168.859 21.7631V84.0602H151.765L151.736 84.7441C151.558 89.1537 147.967 92.6087 143.556 92.6087H143.578Z" fill="white"/>
<path d="M147.817 1.42475C159.033 1.42475 168.16 10.5503 168.16 21.763V83.3478H151.095L151.038 84.7156C150.881 88.7405 147.596 91.8963 143.57 91.8963C139.545 91.8963 136.267 88.7405 136.103 84.7156L136.046 83.3478H118.304L118.247 84.7156C118.09 88.7405 114.805 91.8963 110.779 91.8963C106.753 91.8963 103.476 88.7405 103.312 84.7156L103.255 83.3478H86.1892V68.9365C91.0844 68.0959 94.7398 63.8644 94.7398 58.7709C94.7398 53.6774 91.0844 49.4459 86.1892 48.6053V36.1673C91.0844 35.3267 94.7398 31.0952 94.7398 26.0017C94.7398 20.9082 91.0844 16.6767 86.1892 15.8361V1.42475H147.789M147.789 0H84.7642V17.1184C89.5168 17.3036 93.3147 21.2074 93.3147 26.0017C93.3147 30.796 89.5168 34.6998 84.7642 34.885V49.8805C89.5168 50.0657 93.3147 53.9695 93.3147 58.7638C93.3147 63.5581 89.5168 67.4619 84.7642 67.6471V84.7655H101.887C102.072 89.517 105.977 93.314 110.772 93.314C115.567 93.314 119.472 89.517 119.657 84.7655H134.657C134.842 89.517 138.747 93.314 143.542 93.314C148.337 93.314 152.242 89.517 152.427 84.7655H169.55V21.763C169.55 9.74528 159.802 0 147.782 0H147.789Z" fill="black"/>
<path d="M85.5051 168.833V151.743L84.8211 151.714C80.4104 151.536 76.9546 147.946 76.9546 143.536C76.9546 139.127 80.4104 135.536 84.8211 135.358L85.5051 135.33V118.967L84.8211 118.938C80.4104 118.76 76.9546 115.17 76.9546 110.76C76.9546 106.35 80.4104 102.76 84.8211 102.582L85.5051 102.553V85.4636H101.252C101.787 90.3078 105.855 94.0121 110.8 94.0121C115.746 94.0121 119.821 90.3078 120.349 85.4636H134.029C134.564 90.3078 138.632 94.0121 143.577 94.0121C148.523 94.0121 152.598 90.3078 153.126 85.4636H168.873V147.761C168.873 159.365 159.424 168.811 147.817 168.811H85.5051V168.833Z" fill="white"/>
<path d="M168.161 86.1973V147.782C168.161 158.995 159.033 168.12 147.817 168.12H86.218V151.059L84.8499 151.002C80.8241 150.845 77.6675 147.561 77.6675 143.536C77.6675 139.511 80.8241 136.234 84.8499 136.071L86.218 136.014V118.276L84.8499 118.219C80.8241 118.062 77.6675 114.778 77.6675 110.753C77.6675 106.728 80.8241 103.451 84.8499 103.287L86.218 103.23V86.1688H100.633C101.474 91.0628 105.706 94.7173 110.801 94.7173C115.895 94.7173 120.128 91.0628 120.969 86.1688H133.41C134.251 91.0628 138.483 94.7173 143.578 94.7173C148.673 94.7173 152.905 91.0628 153.746 86.1688H168.161M169.586 84.7441H152.463C152.278 89.4956 148.373 93.2926 143.578 93.2926C138.782 93.2926 134.878 89.4956 134.692 84.7441H119.693C119.508 89.4956 115.603 93.2926 110.808 93.2926C106.012 93.2926 102.108 89.4956 101.922 84.7441H84.8V101.862C80.0474 102.048 76.2495 105.951 76.2495 110.746C76.2495 115.54 80.0474 119.444 84.8 119.629V134.625C80.0474 134.81 76.2495 138.714 76.2495 143.508C76.2495 148.302 80.0474 152.206 84.8 152.391V169.51H147.825C159.845 169.51 169.593 159.764 169.593 147.746V84.7369L169.586 84.7441Z" fill="black"/>
<path d="M30.3047 57.3319C28.8654 55.9641 28.1528 54.0479 28.1528 51.5902V31.0738C28.1528 28.6802 28.844 26.8138 30.2335 25.4816C31.6158 24.1495 33.5397 23.4799 36.0051 23.4799H51.9589C52.985 23.4799 53.7688 23.7078 54.3175 24.1709C54.8661 24.6339 55.1369 25.2893 55.1369 26.1441C55.1369 26.999 54.8519 27.6045 54.289 28.0676C53.7261 28.5306 52.9494 28.7586 51.9518 28.7586H37.1736C36.4896 28.7586 35.9481 28.9794 35.5562 29.4282C35.1643 29.877 34.9648 30.4896 34.9648 31.2732V38.4041H48.0471C49.0731 38.4041 49.8569 38.6321 50.4056 39.0951C50.9543 39.5582 51.225 40.2135 51.225 41.0684C51.225 41.9232 50.94 42.5288 50.3771 42.9918C49.8142 43.4548 49.0375 43.6828 48.04 43.6828H34.9576V51.583C34.9576 52.3667 35.1571 52.9864 35.549 53.4281C35.9409 53.8698 36.4825 54.0977 37.1665 54.0977H53.0705C54.0966 54.0977 54.8804 54.3257 55.429 54.7887C55.9777 55.2518 56.2485 55.9071 56.2485 56.762C56.2485 57.6168 55.9635 58.2224 55.4005 58.6854C54.8376 59.1485 54.061 59.3764 53.0634 59.3764H36.34C33.7392 59.3764 31.7227 58.6925 30.2833 57.3248L30.3047 57.3319Z" fill="black"/>
<path d="M53.0844 61.1644H36.361C33.3042 61.1644 30.853 60.3096 29.0788 58.6213C27.2832 56.9116 26.3711 54.5465 26.3711 51.583V31.0666C26.3711 28.1815 27.2547 25.8663 28.9933 24.1922C30.7176 22.5324 33.0761 21.6918 35.9976 21.6918H51.9514C53.405 21.6918 54.5879 22.0693 55.4572 22.8031C56.1198 23.3659 56.9108 24.3988 56.9108 26.137C56.9108 27.4976 56.3906 28.6374 55.4073 29.4424C54.5166 30.169 53.3552 30.5395 51.9443 30.5395H37.1662C36.9453 30.5395 36.9025 30.5893 36.8811 30.6036C36.7885 30.7033 36.7386 30.9526 36.7386 31.2732V36.6231H48.0396C49.4932 36.6231 50.676 37.0007 51.5453 37.7344C52.208 38.2972 52.9989 39.3302 52.9989 41.0684C52.9989 42.429 52.4787 43.5688 51.5025 44.3667C50.6119 45.0933 49.4504 45.4637 48.0396 45.4637H36.7386V51.583C36.7386 51.8965 36.7885 52.1458 36.8811 52.2455C36.8954 52.2669 36.9381 52.3096 37.1662 52.3096H53.0701C54.5237 52.3096 55.7066 52.6872 56.5759 53.4209C57.2385 53.9837 58.0295 55.0167 58.0295 56.7548C58.0295 58.1155 57.5093 59.2553 56.526 60.0531C55.6353 60.7798 54.4739 61.1502 53.063 61.1502L53.0844 61.1644ZM35.9976 25.2608C33.9953 25.2608 32.5132 25.7523 31.4587 26.7639C30.4255 27.7541 29.9267 29.1646 29.9267 31.0737V51.5901C29.9267 53.5634 30.454 55.0167 31.5299 56.0425C32.6344 57.0968 34.2091 57.6026 36.3539 57.6026H53.0773C53.462 57.6026 53.9893 57.5527 54.2815 57.3105C54.3598 57.2464 54.4739 57.1538 54.4739 56.7691C54.4739 56.3132 54.3385 56.2063 54.2886 56.1565C54.082 55.9784 53.6473 55.8857 53.0773 55.8857H37.1733C35.6627 55.8857 34.7364 55.1947 34.2233 54.6177C33.5393 53.8412 33.183 52.8225 33.183 51.5901V41.909H48.0467C48.4386 41.909 48.9588 41.8591 49.2509 41.6169C49.3293 41.5528 49.4433 41.4602 49.4433 41.0684C49.4433 40.6124 49.3079 40.4985 49.2509 40.4557C49.0443 40.2847 48.6025 40.185 48.0396 40.185H33.1759V31.2732C33.1759 30.0408 33.525 29.0221 34.2162 28.2456C34.9501 27.4121 35.9691 26.9776 37.1662 26.9776H51.9443C52.3362 26.9776 52.8564 26.9277 53.1485 26.6855C53.2269 26.6214 53.3409 26.5288 53.3409 26.1441C53.3409 25.6882 53.2055 25.5813 53.1485 25.5315C52.9419 25.3534 52.5072 25.2608 51.9372 25.2608H35.9833H35.9976Z" fill="black"/>
<path d="M115.454 57.1324C114.014 55.7647 113.302 53.8484 113.302 51.3907V30.8743C113.302 28.4807 113.993 26.6143 115.382 25.2822C116.765 23.95 118.689 23.2804 121.154 23.2804H128.336C132.27 23.2804 135.676 23.9999 138.547 25.4318C141.419 26.8636 143.621 28.9367 145.138 31.6366C146.663 34.3365 147.418 37.5493 147.418 41.2821C147.418 45.0149 146.656 48.2135 145.138 50.8992C143.613 53.5848 141.426 55.6364 138.569 57.0541C135.711 58.4717 132.298 59.1841 128.336 59.1841H121.51C118.909 59.1841 116.893 58.5002 115.454 57.1324ZM127.816 53.8983C132.092 53.8983 135.27 52.8653 137.357 50.7923C139.445 48.7264 140.485 45.5492 140.485 41.275C140.485 37.0007 139.431 33.8093 137.329 31.7078C135.227 29.6063 132.056 28.552 127.809 28.552H122.323C121.639 28.552 121.097 28.7728 120.705 29.2216C120.313 29.6704 120.114 30.283 120.114 31.0667V51.3765C120.114 52.1601 120.313 52.7798 120.705 53.2215C121.097 53.6632 121.639 53.8911 122.323 53.8911H127.809L127.816 53.8983Z" fill="black"/>
<path d="M128.329 60.9651H121.503C118.439 60.9651 115.995 60.1102 114.221 58.4219C112.425 56.7122 111.513 54.3471 111.513 51.3907V30.8744C111.513 27.9892 112.397 25.674 114.135 23.9999C115.86 22.3401 118.218 21.4995 121.14 21.4995H128.322C132.519 21.4995 136.217 22.2902 139.331 23.8432C142.516 25.4318 144.989 27.7613 146.677 30.7675C148.345 33.731 149.193 37.2644 149.193 41.2822C149.193 45.2999 148.345 48.8333 146.677 51.7754C144.981 54.7603 142.523 57.0755 139.352 58.6498C136.26 60.1886 132.548 60.9651 128.322 60.9651H128.329ZM121.147 25.0614C119.145 25.0614 117.662 25.5529 116.608 26.5645C115.575 27.5547 115.076 28.9652 115.076 30.8744V51.3907C115.076 53.364 115.603 54.8173 116.679 55.8431C117.784 56.8974 119.358 57.4032 121.503 57.4032H128.329C131.999 57.4032 135.177 56.7478 137.77 55.4584C140.321 54.1904 142.224 52.4094 143.578 50.023C144.939 47.6223 145.63 44.6802 145.63 41.2822C145.63 37.8841 144.939 34.9349 143.578 32.5128C142.224 30.105 140.314 28.3098 137.742 27.0275C135.134 25.7239 131.963 25.0614 128.329 25.0614H121.147ZM127.816 55.6792H122.33C120.819 55.6792 119.893 54.9882 119.38 54.4112C118.696 53.6347 118.339 52.616 118.339 51.3836V31.0738C118.339 29.8414 118.689 28.8227 119.38 28.0462C120.114 27.2128 121.133 26.7782 122.33 26.7782H127.816C132.526 26.7782 136.153 28.0177 138.59 30.4541C141.027 32.8904 142.267 36.5377 142.267 41.2822C142.267 46.0266 141.034 49.6526 138.611 52.0604C136.189 54.4611 132.555 55.6792 127.816 55.6792ZM122.33 30.3401C122.109 30.3401 122.066 30.3899 122.045 30.4042C121.952 30.5039 121.902 30.7533 121.902 31.0738V51.3836C121.902 51.6971 121.952 51.9464 122.045 52.0461C122.059 52.0675 122.102 52.1102 122.33 52.1102H127.816C131.586 52.1102 134.372 51.2411 136.103 49.5243C137.827 47.8146 138.704 45.0364 138.704 41.275C138.704 37.5137 137.82 34.7141 136.067 32.9687C134.322 31.2234 131.543 30.333 127.809 30.333H122.322L122.33 30.3401Z" fill="black"/>
<path d="M140.827 140.224C140.827 141.043 140.485 141.748 139.801 142.325C139.253 142.767 138.64 142.995 137.956 142.995C137.03 142.995 136.175 142.603 135.391 141.812L128.002 133.912L120.563 141.812C119.772 142.596 118.924 142.995 117.998 142.995C117.313 142.995 116.694 142.774 116.152 142.325C115.468 141.741 115.126 141.043 115.126 140.224C115.126 139.476 115.397 138.82 115.945 138.272L123.997 129.709L116.608 121.859C115.96 121.139 115.632 120.406 115.632 119.65C115.632 118.831 115.974 118.126 116.658 117.549C117.135 117.107 117.734 116.879 118.454 116.879C119.38 116.879 120.285 117.321 121.175 118.211L128.002 125.442L134.771 118.211C135.662 117.321 136.566 116.879 137.493 116.879C138.212 116.879 138.811 117.1 139.288 117.549C139.972 118.133 140.314 118.831 140.314 119.65C140.314 120.406 139.987 121.139 139.338 121.859L131.949 129.709L140.001 138.272C140.55 138.82 140.82 139.469 140.82 140.224H140.827Z" fill="black"/>
<path d="M137.949 144.776C136.538 144.776 135.255 144.206 134.122 143.073L127.987 136.52L121.852 143.038C120.684 144.206 119.394 144.776 117.99 144.776C116.886 144.776 115.888 144.42 115.019 143.707C113.907 142.767 113.337 141.57 113.337 140.224C113.337 139.006 113.801 137.894 114.677 137.018L121.546 129.709L115.304 123.084C114.328 122.008 113.843 120.862 113.843 119.658C113.843 118.325 114.406 117.136 115.468 116.224C116.266 115.497 117.299 115.113 118.446 115.113C119.857 115.113 121.19 115.74 122.422 116.965L127.98 122.856L133.46 117.008C134.735 115.732 136.075 115.113 137.478 115.113C138.626 115.113 139.652 115.497 140.457 116.224C141.519 117.143 142.081 118.325 142.081 119.658C142.081 120.862 141.597 122.001 140.649 123.056L134.386 129.709L141.291 137.054C142.131 137.894 142.595 139.006 142.595 140.224C142.595 141.57 142.024 142.767 140.941 143.686C140.036 144.42 139.039 144.776 137.942 144.776H137.949ZM128.002 131.312L136.688 140.594C137.236 141.143 137.671 141.207 137.949 141.207C138.227 141.207 138.44 141.129 138.676 140.936C139.01 140.651 139.039 140.416 139.039 140.217C139.039 139.939 138.953 139.739 138.74 139.526L129.498 129.702L138.034 120.634C138.348 120.285 138.526 119.943 138.526 119.651C138.526 119.451 138.497 119.216 138.127 118.903L138.07 118.853C137.963 118.753 137.813 118.66 137.486 118.66C137.058 118.66 136.566 118.931 136.025 119.472L128.002 128.042L119.879 119.43C119.373 118.931 118.881 118.653 118.453 118.653C118.119 118.653 117.976 118.746 117.869 118.846L117.812 118.895C117.442 119.209 117.413 119.444 117.413 119.643C117.413 119.935 117.584 120.277 117.926 120.655L126.441 129.695L117.235 139.483C116.986 139.732 116.9 139.932 116.9 140.21C116.9 140.409 116.929 140.644 117.299 140.958C117.499 141.121 117.72 141.2 117.99 141.2C118.261 141.2 118.703 141.129 119.294 140.537L127.994 131.298L128.002 131.312Z" fill="black"/>
<path d="M36.1756 141.449C33.7672 140.153 31.9004 138.293 30.5822 135.886C29.2639 133.478 28.6084 130.628 28.6084 127.344V109.549C28.6084 108.594 28.9148 107.839 29.5347 107.291C30.1475 106.742 30.9741 106.472 32.0001 106.472C33.0262 106.472 33.8527 106.756 34.4869 107.319C35.1211 107.882 35.4346 108.63 35.4346 109.549V127.501C35.4346 130.885 36.2398 133.485 37.843 135.294C39.4533 137.104 41.762 138.016 44.7689 138.016C47.7759 138.016 50.0417 137.104 51.6663 135.273C53.2909 133.442 54.1032 130.856 54.1032 127.501V109.549C54.1032 108.623 54.4168 107.882 55.0509 107.319C55.6851 106.756 56.5117 106.472 57.5377 106.472C58.5638 106.472 59.3832 106.742 60.0031 107.291C60.6159 107.839 60.9294 108.594 60.9294 109.549V127.344C60.9294 130.521 60.2525 133.328 58.9058 135.757C57.5591 138.186 55.6495 140.067 53.1841 141.399C50.7187 142.731 47.8685 143.401 44.6193 143.401C41.3701 143.401 38.5912 142.753 36.1828 141.449H36.1756Z" fill="black"/>
<path d="M44.6126 145.182C41.114 145.182 37.993 144.455 35.3281 143.016C32.6204 141.556 30.497 139.44 29.015 136.74C27.5614 134.076 26.8203 130.913 26.8203 127.344V109.549C26.8203 108.089 27.3476 106.849 28.338 105.959C29.2857 105.118 30.5113 104.691 31.9863 104.691C33.4612 104.691 34.6939 105.125 35.663 105.987C36.6748 106.885 37.2092 108.117 37.2092 109.549V127.501C37.2092 130.422 37.8719 132.644 39.1687 134.112C40.437 135.536 42.2611 136.234 44.7622 136.234C47.2632 136.234 49.0517 135.529 50.3343 134.09C51.6525 132.609 52.3223 130.386 52.3223 127.501V109.549C52.3223 108.117 52.8567 106.885 53.8685 105.987C54.8304 105.125 56.0703 104.691 57.5381 104.691C59.006 104.691 60.2386 105.118 61.1863 105.959C62.1839 106.842 62.7112 108.089 62.7112 109.549V127.344C62.7112 130.813 61.9559 133.941 60.4595 136.619C58.9489 139.333 56.7828 141.47 54.0324 142.959C51.3176 144.427 48.1468 145.175 44.6197 145.175L44.6126 145.182ZM31.9934 108.252C31.1312 108.252 30.8177 108.53 30.7108 108.623C30.611 108.708 30.383 108.915 30.383 109.549V127.344C30.383 130.308 30.9744 132.893 32.143 135.031C33.2973 137.153 34.8934 138.742 37.0168 139.882C39.1545 141.036 41.7054 141.62 44.6126 141.62C47.5197 141.62 50.1419 141.022 52.3294 139.832C54.5098 138.649 56.1486 137.039 57.3386 134.888C58.5357 132.737 59.1413 130.201 59.1413 127.344V109.549C59.1413 108.915 58.9133 108.708 58.8136 108.623C58.7138 108.53 58.4003 108.252 57.5381 108.252C56.6759 108.252 56.3482 108.552 56.2342 108.644C56.0489 108.808 55.8779 109.029 55.8779 109.549V127.501C55.8779 131.283 54.9088 134.297 52.9921 136.455C51.0254 138.671 48.2536 139.796 44.7622 139.796C41.2707 139.796 38.4562 138.678 36.5038 136.477C34.6084 134.34 33.6465 131.319 33.6465 127.501V109.549C33.6465 109.036 33.4755 108.808 33.2902 108.644C33.1762 108.544 32.8484 108.252 31.9863 108.252H31.9934Z" fill="black"/>
</svg>
