<svg width="1370" height="124" viewBox="0 0 1370 124" fill="none" xmlns="http://www.w3.org/2000/svg">
<g clip-path="url(#clip0_312_465)">
<path d="M750.52 53.02C748.5 51.1 747.5 48.41 747.5 44.96V16.16C747.5 12.8 748.47 10.18 750.42 8.31C752.36 6.44 755.06 5.5 758.52 5.5H780.91C782.35 5.5 783.45 5.82 784.22 6.47C784.99 7.12 785.37 8.04 785.37 9.24C785.37 10.44 784.97 11.29 784.18 11.94C783.39 12.59 782.3 12.91 780.9 12.91H760.17C759.21 12.91 758.45 13.22 757.9 13.85C757.35 14.48 757.07 15.34 757.07 16.44V26.45H775.43C776.87 26.45 777.97 26.77 778.74 27.42C779.51 28.07 779.89 28.99 779.89 30.19C779.89 31.39 779.49 32.24 778.7 32.89C777.91 33.54 776.82 33.86 775.42 33.86H757.08V44.95C757.08 46.05 757.36 46.92 757.91 47.54C758.46 48.16 759.22 48.48 760.18 48.48H782.5C783.94 48.48 785.04 48.8 785.81 49.45C786.58 50.1 786.96 51.02 786.96 52.22C786.96 53.42 786.56 54.27 785.77 54.92C784.98 55.57 783.89 55.89 782.49 55.89H759.02C755.37 55.89 752.54 54.93 750.52 53.01V53.02Z" fill="#9F0CA2"/>
<path d="M782.49 58.4H759.02C754.73 58.4 751.29 57.2 748.8 54.83C746.28 52.43 745 49.11 745 44.95V16.16C745 12.11 746.24 8.86 748.68 6.51C751.1 4.18 754.41 3 758.52 3H780.91C782.95 3 784.61 3.53 785.83 4.56C786.76 5.35 787.87 6.8 787.87 9.24C787.87 11.15 787.14 12.75 785.76 13.88C784.51 14.9 782.88 15.42 780.9 15.42H760.17C759.86 15.42 759.8 15.49 759.77 15.51C759.64 15.65 759.57 16 759.57 16.45V23.96H775.43C777.47 23.96 779.13 24.49 780.35 25.52C781.28 26.31 782.39 27.76 782.39 30.2C782.39 32.11 781.66 33.71 780.29 34.83C779.04 35.85 777.41 36.37 775.43 36.37H759.57V44.96C759.57 45.4 759.64 45.75 759.77 45.89C759.79 45.92 759.85 45.98 760.17 45.98H782.49C784.53 45.98 786.19 46.51 787.41 47.54C788.34 48.33 789.45 49.78 789.45 52.22C789.45 54.13 788.72 55.73 787.34 56.85C786.09 57.87 784.46 58.39 782.48 58.39L782.49 58.4ZM758.52 8C755.71 8 753.63 8.69 752.15 10.11C750.7 11.5 750 13.48 750 16.16V44.96C750 47.73 750.74 49.77 752.25 51.21C753.8 52.69 756.01 53.4 759.02 53.4H782.49C783.03 53.4 783.77 53.33 784.18 52.99C784.29 52.9 784.45 52.77 784.45 52.23C784.45 51.59 784.26 51.44 784.19 51.37C783.9 51.12 783.29 50.99 782.49 50.99H760.17C758.05 50.99 756.75 50.02 756.03 49.21C755.07 48.12 754.57 46.69 754.57 44.96V31.37H775.43C775.98 31.37 776.71 31.3 777.12 30.96C777.23 30.87 777.39 30.74 777.39 30.19C777.39 29.55 777.2 29.39 777.12 29.33C776.83 29.09 776.21 28.95 775.42 28.95H754.58V16.44C754.58 14.71 755.07 13.28 756.04 12.19C757.07 11.02 758.5 10.41 760.18 10.41H780.92C781.47 10.41 782.2 10.34 782.61 10C782.72 9.91 782.88 9.78 782.88 9.24C782.88 8.6 782.69 8.45 782.61 8.38C782.32 8.13 781.71 8 780.91 8H758.52Z" fill="#9F0CA2"/>
<path d="M807.02 53.02C805 51.1 804 48.41 804 44.96V16.16C804 12.8 804.97 10.18 806.92 8.31C808.86 6.44 811.56 5.5 815.02 5.5H825.1C830.62 5.5 835.4 6.51 839.43 8.52C843.46 10.53 846.55 13.44 848.68 17.23C850.82 21.02 851.88 25.53 851.88 30.77C851.88 36.01 850.81 40.5 848.68 44.27C846.54 48.04 843.47 50.92 839.46 52.91C835.45 54.9 830.66 55.9 825.1 55.9H815.52C811.87 55.9 809.04 54.94 807.02 53.02ZM824.37 48.48C830.37 48.48 834.83 47.03 837.76 44.12C840.69 41.22 842.15 36.76 842.15 30.76C842.15 24.76 840.67 20.28 837.72 17.33C834.77 14.38 830.32 12.9 824.36 12.9H816.66C815.7 12.9 814.94 13.21 814.39 13.84C813.84 14.47 813.56 15.33 813.56 16.43V44.94C813.56 46.04 813.84 46.91 814.39 47.53C814.94 48.15 815.7 48.47 816.66 48.47H824.36L824.37 48.48Z" fill="#55EDB6"/>
<path d="M825.1 58.4H815.52C811.22 58.4 807.79 57.2 805.3 54.83C802.78 52.43 801.5 49.11 801.5 44.96V16.16C801.5 12.11 802.74 8.86 805.18 6.51C807.6 4.18 810.91 3 815.01 3H825.09C830.98 3 836.17 4.11 840.54 6.29C845.01 8.52 848.48 11.79 850.85 16.01C853.19 20.17 854.38 25.13 854.38 30.77C854.38 36.41 853.19 41.37 850.85 45.5C848.47 49.69 845.02 52.94 840.57 55.15C836.23 57.31 831.02 58.4 825.09 58.4H825.1ZM815.02 8C812.21 8 810.13 8.69 808.65 10.11C807.2 11.5 806.5 13.48 806.5 16.16V44.96C806.5 47.73 807.24 49.77 808.75 51.21C810.3 52.69 812.51 53.4 815.52 53.4H825.1C830.25 53.4 834.71 52.48 838.35 50.67C841.93 48.89 844.6 46.39 846.5 43.04C848.41 39.67 849.38 35.54 849.38 30.77C849.38 26 848.41 21.86 846.5 18.46C844.6 15.08 841.92 12.56 838.31 10.76C834.65 8.93 830.2 8 825.1 8H815.02ZM824.38 50.98H816.68C814.56 50.98 813.26 50.01 812.54 49.2C811.58 48.11 811.08 46.68 811.08 44.95V16.44C811.08 14.71 811.57 13.28 812.54 12.19C813.57 11.02 815 10.41 816.68 10.41H824.38C830.99 10.41 836.08 12.15 839.5 15.57C842.92 18.99 844.66 24.11 844.66 30.77C844.66 37.43 842.93 42.52 839.53 45.9C836.13 49.27 831.03 50.98 824.38 50.98ZM816.68 15.41C816.37 15.41 816.31 15.48 816.28 15.5C816.15 15.64 816.08 15.99 816.08 16.44V44.95C816.08 45.39 816.15 45.74 816.28 45.88C816.3 45.91 816.36 45.97 816.68 45.97H824.38C829.67 45.97 833.58 44.75 836.01 42.34C838.43 39.94 839.66 36.04 839.66 30.76C839.66 25.48 838.42 21.55 835.96 19.1C833.51 16.65 829.61 15.4 824.37 15.4H816.67L816.68 15.41Z" fill="#55EDB6"/>
<path d="M958.63 69.3801C958.63 70.5301 958.15 71.5201 957.19 72.3301C956.42 72.9501 955.56 73.2701 954.6 73.2701C953.3 73.2701 952.1 72.7201 951 71.6101L940.63 60.5201L930.19 71.6101C929.08 72.7101 927.89 73.2701 926.59 73.2701C925.63 73.2701 924.76 72.9601 924 72.3301C923.04 71.5101 922.56 70.5301 922.56 69.3801C922.56 68.3301 922.94 67.4101 923.71 66.6401L935.01 54.6201L924.64 43.6001C923.73 42.5901 923.27 41.5601 923.27 40.5001C923.27 39.3501 923.75 38.3601 924.71 37.5501C925.38 36.9301 926.22 36.6101 927.23 36.6101C928.53 36.6101 929.8 37.2301 931.05 38.4801L940.63 48.6301L950.13 38.4801C951.38 37.2301 952.65 36.6101 953.95 36.6101C954.96 36.6101 955.8 36.9201 956.47 37.5501C957.43 38.3701 957.91 39.3501 957.91 40.5001C957.91 41.5601 957.45 42.5901 956.54 43.6001L946.17 54.6201L957.47 66.6401C958.24 67.4101 958.62 68.3201 958.62 69.3801H958.63Z" fill="#9F0CA2"/>
<path d="M954.6 75.7699C952.62 75.7699 950.82 74.9699 949.23 73.3799L940.62 64.1799L932.01 73.3299C930.37 74.9699 928.56 75.7699 926.59 75.7699C925.04 75.7699 923.64 75.2699 922.42 74.2699C920.86 72.9499 920.06 71.2699 920.06 69.3799C920.06 67.6699 920.71 66.1099 921.94 64.8799L931.58 54.6199L922.82 45.3199C921.45 43.8099 920.77 42.1999 920.77 40.5099C920.77 38.6399 921.56 36.9699 923.05 35.6899C924.17 34.6699 925.62 34.1299 927.23 34.1299C929.21 34.1299 931.08 35.0099 932.81 36.7299L940.61 44.9999L948.3 36.7899C950.09 34.9999 951.97 34.1299 953.94 34.1299C955.55 34.1299 956.99 34.6699 958.12 35.6899C959.61 36.9799 960.4 38.6399 960.4 40.5099C960.4 42.1999 959.72 43.7999 958.39 45.2799L949.6 54.6199L959.29 64.9299C960.47 66.1099 961.12 67.6699 961.12 69.3799C961.12 71.2699 960.32 72.9499 958.8 74.2399C957.53 75.2699 956.13 75.7699 954.59 75.7699H954.6ZM940.64 56.8699L952.83 69.8999C953.6 70.6699 954.21 70.7599 954.6 70.7599C954.99 70.7599 955.29 70.6499 955.62 70.3799C956.09 69.9799 956.13 69.6499 956.13 69.3699C956.13 68.9799 956.01 68.6999 955.71 68.3999L942.74 54.6099L954.72 41.8799C955.16 41.3899 955.41 40.9099 955.41 40.4999C955.41 40.2199 955.37 39.8899 954.85 39.4499L954.77 39.3799C954.62 39.2399 954.41 39.1099 953.95 39.1099C953.35 39.1099 952.66 39.4899 951.9 40.2499L940.64 52.2799L929.24 40.1899C928.53 39.4899 927.84 39.0999 927.24 39.0999C926.77 39.0999 926.57 39.2299 926.42 39.3699L926.34 39.4399C925.82 39.8799 925.78 40.2099 925.78 40.4899C925.78 40.8999 926.02 41.3799 926.5 41.9099L938.45 54.5999L925.53 68.3399C925.18 68.6899 925.06 68.9699 925.06 69.3599C925.06 69.6399 925.1 69.9699 925.62 70.4099C925.9 70.6399 926.21 70.7499 926.59 70.7499C926.97 70.7499 927.59 70.6499 928.42 69.8199L940.63 56.8499L940.64 56.8699Z" fill="#9F0CA2"/>
<path d="M877.26 54.6C873.88 52.78 871.26 50.17 869.41 46.79C867.56 43.41 866.64 39.41 866.64 34.8V9.82C866.64 8.48 867.07 7.42 867.94 6.65C868.8 5.88 869.96 5.5 871.4 5.5C872.84 5.5 874 5.9 874.89 6.69C875.78 7.48 876.22 8.53 876.22 9.82V35.02C876.22 39.77 877.35 43.42 879.6 45.96C881.86 48.5 885.1 49.78 889.32 49.78C893.54 49.78 896.72 48.5 899 45.93C901.28 43.36 902.42 39.73 902.42 35.02V9.82C902.42 8.52 902.86 7.48 903.75 6.69C904.64 5.9 905.8 5.5 907.24 5.5C908.68 5.5 909.83 5.88 910.7 6.65C911.56 7.42 912 8.48 912 9.82V34.8C912 39.26 911.05 43.2 909.16 46.61C907.27 50.02 904.59 52.66 901.13 54.53C897.67 56.4 893.67 57.34 889.11 57.34C884.55 57.34 880.65 56.43 877.27 54.6H877.26Z" fill="#F4DE16"/>
<path d="M889.1 59.84C884.19 59.84 879.81 58.82 876.07 56.8C872.27 54.75 869.29 51.78 867.21 47.99C865.17 44.25 864.13 39.81 864.13 34.8V9.82C864.13 7.77 864.87 6.03 866.26 4.78C867.59 3.6 869.31 3 871.38 3C873.45 3 875.18 3.61 876.54 4.82C877.96 6.08 878.71 7.81 878.71 9.82V35.02C878.71 39.12 879.64 42.24 881.46 44.3C883.24 46.3 885.8 47.28 889.31 47.28C892.82 47.28 895.33 46.29 897.13 44.27C898.98 42.19 899.92 39.07 899.92 35.02V9.82C899.92 7.81 900.67 6.08 902.09 4.82C903.44 3.61 905.18 3 907.24 3C909.3 3 911.03 3.6 912.36 4.78C913.76 6.02 914.5 7.77 914.5 9.82V34.8C914.5 39.67 913.44 44.06 911.34 47.82C909.22 51.63 906.18 54.63 902.32 56.72C898.51 58.78 894.06 59.83 889.11 59.83L889.1 59.84ZM871.39 8C870.18 8 869.74 8.39 869.59 8.52C869.45 8.64 869.13 8.93 869.13 9.82V34.8C869.13 38.96 869.96 42.59 871.6 45.59C873.22 48.57 875.46 50.8 878.44 52.4C881.44 54.02 885.02 54.84 889.1 54.84C893.18 54.84 896.86 54 899.93 52.33C902.99 50.67 905.29 48.41 906.96 45.39C908.64 42.37 909.49 38.81 909.49 34.8V9.82C909.49 8.93 909.17 8.64 909.03 8.52C908.89 8.39 908.45 8 907.24 8C906.03 8 905.57 8.42 905.41 8.55C905.15 8.78 904.91 9.09 904.91 9.82V35.02C904.91 40.33 903.55 44.56 900.86 47.59C898.1 50.7 894.21 52.28 889.31 52.28C884.41 52.28 880.46 50.71 877.72 47.62C875.06 44.62 873.71 40.38 873.71 35.02V9.82C873.71 9.1 873.47 8.78 873.21 8.55C873.05 8.41 872.59 8 871.38 8H871.39Z" fill="#F4DE16"/>
</g>
<g clip-path="url(#clip1_312_465)">
<path d="M1158.52 53.02C1156.5 51.1 1155.5 48.41 1155.5 44.96V16.16C1155.5 12.8 1156.47 10.18 1158.42 8.31C1160.36 6.44 1163.06 5.5 1166.52 5.5H1188.91C1190.35 5.5 1191.45 5.82 1192.22 6.47C1192.99 7.12 1193.37 8.04 1193.37 9.24C1193.37 10.44 1192.97 11.29 1192.18 11.94C1191.39 12.59 1190.3 12.91 1188.9 12.91H1168.17C1167.21 12.91 1166.45 13.22 1165.9 13.85C1165.35 14.48 1165.07 15.34 1165.07 16.44V26.45H1183.43C1184.87 26.45 1185.97 26.77 1186.74 27.42C1187.51 28.07 1187.89 28.99 1187.89 30.19C1187.89 31.39 1187.49 32.24 1186.7 32.89C1185.91 33.54 1184.82 33.86 1183.42 33.86H1165.08V44.95C1165.08 46.05 1165.36 46.92 1165.91 47.54C1166.46 48.16 1167.22 48.48 1168.18 48.48H1190.5C1191.94 48.48 1193.04 48.8 1193.81 49.45C1194.58 50.1 1194.96 51.02 1194.96 52.22C1194.96 53.42 1194.56 54.27 1193.77 54.92C1192.98 55.57 1191.89 55.89 1190.49 55.89H1167.02C1163.37 55.89 1160.54 54.93 1158.52 53.01V53.02Z" fill="#9F0CA2"/>
<path d="M1190.49 58.4H1167.02C1162.73 58.4 1159.29 57.2 1156.8 54.83C1154.28 52.43 1153 49.11 1153 44.95V16.16C1153 12.11 1154.24 8.86 1156.68 6.51C1159.1 4.18 1162.41 3 1166.52 3H1188.91C1190.95 3 1192.61 3.53 1193.83 4.56C1194.76 5.35 1195.87 6.8 1195.87 9.24C1195.87 11.15 1195.14 12.75 1193.76 13.88C1192.51 14.9 1190.88 15.42 1188.9 15.42H1168.17C1167.86 15.42 1167.8 15.49 1167.77 15.51C1167.64 15.65 1167.57 16 1167.57 16.45V23.96H1183.43C1185.47 23.96 1187.13 24.49 1188.35 25.52C1189.28 26.31 1190.39 27.76 1190.39 30.2C1190.39 32.11 1189.66 33.71 1188.29 34.83C1187.04 35.85 1185.41 36.37 1183.43 36.37H1167.57V44.96C1167.57 45.4 1167.64 45.75 1167.77 45.89C1167.79 45.92 1167.85 45.98 1168.17 45.98H1190.49C1192.53 45.98 1194.19 46.51 1195.41 47.54C1196.34 48.33 1197.45 49.78 1197.45 52.22C1197.45 54.13 1196.72 55.73 1195.34 56.85C1194.09 57.87 1192.46 58.39 1190.48 58.39L1190.49 58.4ZM1166.52 8C1163.71 8 1161.63 8.69 1160.15 10.11C1158.7 11.5 1158 13.48 1158 16.16V44.96C1158 47.73 1158.74 49.77 1160.25 51.21C1161.8 52.69 1164.01 53.4 1167.02 53.4H1190.49C1191.03 53.4 1191.77 53.33 1192.18 52.99C1192.29 52.9 1192.45 52.77 1192.45 52.23C1192.45 51.59 1192.26 51.44 1192.19 51.37C1191.9 51.12 1191.29 50.99 1190.49 50.99H1168.17C1166.05 50.99 1164.75 50.02 1164.03 49.21C1163.07 48.12 1162.57 46.69 1162.57 44.96V31.37H1183.43C1183.98 31.37 1184.71 31.3 1185.12 30.96C1185.23 30.87 1185.39 30.74 1185.39 30.19C1185.39 29.55 1185.2 29.39 1185.12 29.33C1184.83 29.09 1184.21 28.95 1183.42 28.95H1162.58V16.44C1162.58 14.71 1163.07 13.28 1164.04 12.19C1165.07 11.02 1166.5 10.41 1168.18 10.41H1188.92C1189.47 10.41 1190.2 10.34 1190.61 10C1190.72 9.91 1190.88 9.78 1190.88 9.24C1190.88 8.6 1190.69 8.45 1190.61 8.38C1190.32 8.13 1189.71 8 1188.91 8H1166.52Z" fill="#9F0CA2"/>
<path d="M1215.02 53.02C1213 51.1 1212 48.41 1212 44.96V16.16C1212 12.8 1212.97 10.18 1214.92 8.31C1216.86 6.44 1219.56 5.5 1223.02 5.5H1233.1C1238.62 5.5 1243.4 6.51 1247.43 8.52C1251.46 10.53 1254.55 13.44 1256.68 17.23C1258.82 21.02 1259.88 25.53 1259.88 30.77C1259.88 36.01 1258.81 40.5 1256.68 44.27C1254.54 48.04 1251.47 50.92 1247.46 52.91C1243.45 54.9 1238.66 55.9 1233.1 55.9H1223.52C1219.87 55.9 1217.04 54.94 1215.02 53.02ZM1232.37 48.48C1238.37 48.48 1242.83 47.03 1245.76 44.12C1248.69 41.22 1250.15 36.76 1250.15 30.76C1250.15 24.76 1248.67 20.28 1245.72 17.33C1242.77 14.38 1238.32 12.9 1232.36 12.9H1224.66C1223.7 12.9 1222.94 13.21 1222.39 13.84C1221.84 14.47 1221.56 15.33 1221.56 16.43V44.94C1221.56 46.04 1221.84 46.91 1222.39 47.53C1222.94 48.15 1223.7 48.47 1224.66 48.47H1232.36L1232.37 48.48Z" fill="#55EDB6"/>
<path d="M1233.1 58.4H1223.52C1219.22 58.4 1215.79 57.2 1213.3 54.83C1210.78 52.43 1209.5 49.11 1209.5 44.96V16.16C1209.5 12.11 1210.74 8.86 1213.18 6.51C1215.6 4.18 1218.91 3 1223.01 3H1233.09C1238.98 3 1244.17 4.11 1248.54 6.29C1253.01 8.52 1256.48 11.79 1258.85 16.01C1261.19 20.17 1262.38 25.13 1262.38 30.77C1262.38 36.41 1261.19 41.37 1258.85 45.5C1256.47 49.69 1253.02 52.94 1248.57 55.15C1244.23 57.31 1239.02 58.4 1233.09 58.4H1233.1ZM1223.02 8C1220.21 8 1218.13 8.69 1216.65 10.11C1215.2 11.5 1214.5 13.48 1214.5 16.16V44.96C1214.5 47.73 1215.24 49.77 1216.75 51.21C1218.3 52.69 1220.51 53.4 1223.52 53.4H1233.1C1238.25 53.4 1242.71 52.48 1246.35 50.67C1249.93 48.89 1252.6 46.39 1254.5 43.04C1256.41 39.67 1257.38 35.54 1257.38 30.77C1257.38 26 1256.41 21.86 1254.5 18.46C1252.6 15.08 1249.92 12.56 1246.31 10.76C1242.65 8.93 1238.2 8 1233.1 8H1223.02ZM1232.38 50.98H1224.68C1222.56 50.98 1221.26 50.01 1220.54 49.2C1219.58 48.11 1219.08 46.68 1219.08 44.95V16.44C1219.08 14.71 1219.57 13.28 1220.54 12.19C1221.57 11.02 1223 10.41 1224.68 10.41H1232.38C1238.99 10.41 1244.08 12.15 1247.5 15.57C1250.92 18.99 1252.66 24.11 1252.66 30.77C1252.66 37.43 1250.93 42.52 1247.53 45.9C1244.13 49.27 1239.03 50.98 1232.38 50.98ZM1224.68 15.41C1224.37 15.41 1224.31 15.48 1224.28 15.5C1224.15 15.64 1224.08 15.99 1224.08 16.44V44.95C1224.08 45.39 1224.15 45.74 1224.28 45.88C1224.3 45.91 1224.36 45.97 1224.68 45.97H1232.38C1237.67 45.97 1241.58 44.75 1244.01 42.34C1246.43 39.94 1247.66 36.04 1247.66 30.76C1247.66 25.48 1246.42 21.55 1243.96 19.1C1241.51 16.65 1237.61 15.4 1232.37 15.4H1224.67L1224.68 15.41Z" fill="#55EDB6"/>
<path d="M1366.63 69.3801C1366.63 70.5301 1366.15 71.5201 1365.19 72.3301C1364.42 72.9501 1363.56 73.2701 1362.6 73.2701C1361.3 73.2701 1360.1 72.7201 1359 71.6101L1348.63 60.5201L1338.19 71.6101C1337.08 72.7101 1335.89 73.2701 1334.59 73.2701C1333.63 73.2701 1332.76 72.9601 1332 72.3301C1331.04 71.5101 1330.56 70.5301 1330.56 69.3801C1330.56 68.3301 1330.94 67.4101 1331.71 66.6401L1343.01 54.6201L1332.64 43.6001C1331.73 42.5901 1331.27 41.5601 1331.27 40.5001C1331.27 39.3501 1331.75 38.3601 1332.71 37.5501C1333.38 36.9301 1334.22 36.6101 1335.23 36.6101C1336.53 36.6101 1337.8 37.2301 1339.05 38.4801L1348.63 48.6301L1358.13 38.4801C1359.38 37.2301 1360.65 36.6101 1361.95 36.6101C1362.96 36.6101 1363.8 36.9201 1364.47 37.5501C1365.43 38.3701 1365.91 39.3501 1365.91 40.5001C1365.91 41.5601 1365.45 42.5901 1364.54 43.6001L1354.17 54.6201L1365.47 66.6401C1366.24 67.4101 1366.62 68.3201 1366.62 69.3801H1366.63Z" fill="#9F0CA2"/>
<path d="M1362.6 75.7699C1360.62 75.7699 1358.82 74.9699 1357.23 73.3799L1348.62 64.1799L1340.01 73.3299C1338.37 74.9699 1336.56 75.7699 1334.59 75.7699C1333.04 75.7699 1331.64 75.2699 1330.42 74.2699C1328.86 72.9499 1328.06 71.2699 1328.06 69.3799C1328.06 67.6699 1328.71 66.1099 1329.94 64.8799L1339.58 54.6199L1330.82 45.3199C1329.45 43.8099 1328.77 42.1999 1328.77 40.5099C1328.77 38.6399 1329.56 36.9699 1331.05 35.6899C1332.17 34.6699 1333.62 34.1299 1335.23 34.1299C1337.21 34.1299 1339.08 35.0099 1340.81 36.7299L1348.61 44.9999L1356.3 36.7899C1358.09 34.9999 1359.97 34.1299 1361.94 34.1299C1363.55 34.1299 1364.99 34.6699 1366.12 35.6899C1367.61 36.9799 1368.4 38.6399 1368.4 40.5099C1368.4 42.1999 1367.72 43.7999 1366.39 45.2799L1357.6 54.6199L1367.29 64.9299C1368.47 66.1099 1369.12 67.6699 1369.12 69.3799C1369.12 71.2699 1368.32 72.9499 1366.8 74.2399C1365.53 75.2699 1364.13 75.7699 1362.59 75.7699H1362.6ZM1348.64 56.8699L1360.83 69.8999C1361.6 70.6699 1362.21 70.7599 1362.6 70.7599C1362.99 70.7599 1363.29 70.6499 1363.62 70.3799C1364.09 69.9799 1364.13 69.6499 1364.13 69.3699C1364.13 68.9799 1364.01 68.6999 1363.71 68.3999L1350.74 54.6099L1362.72 41.8799C1363.16 41.3899 1363.41 40.9099 1363.41 40.4999C1363.41 40.2199 1363.37 39.8899 1362.85 39.4499L1362.77 39.3799C1362.62 39.2399 1362.41 39.1099 1361.95 39.1099C1361.35 39.1099 1360.66 39.4899 1359.9 40.2499L1348.64 52.2799L1337.24 40.1899C1336.53 39.4899 1335.84 39.0999 1335.24 39.0999C1334.77 39.0999 1334.57 39.2299 1334.42 39.3699L1334.34 39.4399C1333.82 39.8799 1333.78 40.2099 1333.78 40.4899C1333.78 40.8999 1334.02 41.3799 1334.5 41.9099L1346.45 54.5999L1333.53 68.3399C1333.18 68.6899 1333.06 68.9699 1333.06 69.3599C1333.06 69.6399 1333.1 69.9699 1333.62 70.4099C1333.9 70.6399 1334.21 70.7499 1334.59 70.7499C1334.97 70.7499 1335.59 70.6499 1336.42 69.8199L1348.63 56.8499L1348.64 56.8699Z" fill="#9F0CA2"/>
<path d="M1285.26 54.6C1281.88 52.78 1279.26 50.17 1277.41 46.79C1275.56 43.41 1274.64 39.41 1274.64 34.8V9.82C1274.64 8.48 1275.07 7.42 1275.94 6.65C1276.8 5.88 1277.96 5.5 1279.4 5.5C1280.84 5.5 1282 5.9 1282.89 6.69C1283.78 7.48 1284.22 8.53 1284.22 9.82V35.02C1284.22 39.77 1285.35 43.42 1287.6 45.96C1289.86 48.5 1293.1 49.78 1297.32 49.78C1301.54 49.78 1304.72 48.5 1307 45.93C1309.28 43.36 1310.42 39.73 1310.42 35.02V9.82C1310.42 8.52 1310.86 7.48 1311.75 6.69C1312.64 5.9 1313.8 5.5 1315.24 5.5C1316.68 5.5 1317.83 5.88 1318.7 6.65C1319.56 7.42 1320 8.48 1320 9.82V34.8C1320 39.26 1319.05 43.2 1317.16 46.61C1315.27 50.02 1312.59 52.66 1309.13 54.53C1305.67 56.4 1301.67 57.34 1297.11 57.34C1292.55 57.34 1288.65 56.43 1285.27 54.6H1285.26Z" fill="#F4DE16"/>
<path d="M1297.1 59.84C1292.19 59.84 1287.81 58.82 1284.07 56.8C1280.27 54.75 1277.29 51.78 1275.21 47.99C1273.17 44.25 1272.13 39.81 1272.13 34.8V9.82C1272.13 7.77 1272.87 6.03 1274.26 4.78C1275.59 3.6 1277.31 3 1279.38 3C1281.45 3 1283.18 3.61 1284.54 4.82C1285.96 6.08 1286.71 7.81 1286.71 9.82V35.02C1286.71 39.12 1287.64 42.24 1289.46 44.3C1291.24 46.3 1293.8 47.28 1297.31 47.28C1300.82 47.28 1303.33 46.29 1305.13 44.27C1306.98 42.19 1307.92 39.07 1307.92 35.02V9.82C1307.92 7.81 1308.67 6.08 1310.09 4.82C1311.44 3.61 1313.18 3 1315.24 3C1317.3 3 1319.03 3.6 1320.36 4.78C1321.76 6.02 1322.5 7.77 1322.5 9.82V34.8C1322.5 39.67 1321.44 44.06 1319.34 47.82C1317.22 51.63 1314.18 54.63 1310.32 56.72C1306.51 58.78 1302.06 59.83 1297.11 59.83L1297.1 59.84ZM1279.39 8C1278.18 8 1277.74 8.39 1277.59 8.52C1277.45 8.64 1277.13 8.93 1277.13 9.82V34.8C1277.13 38.96 1277.96 42.59 1279.6 45.59C1281.22 48.57 1283.46 50.8 1286.44 52.4C1289.44 54.02 1293.02 54.84 1297.1 54.84C1301.18 54.84 1304.86 54 1307.93 52.33C1310.99 50.67 1313.29 48.41 1314.96 45.39C1316.64 42.37 1317.49 38.81 1317.49 34.8V9.82C1317.49 8.93 1317.17 8.64 1317.03 8.52C1316.89 8.39 1316.45 8 1315.24 8C1314.03 8 1313.57 8.42 1313.41 8.55C1313.15 8.78 1312.91 9.09 1312.91 9.82V35.02C1312.91 40.33 1311.55 44.56 1308.86 47.59C1306.1 50.7 1302.21 52.28 1297.31 52.28C1292.41 52.28 1288.46 50.71 1285.72 47.62C1283.06 44.62 1281.71 40.38 1281.71 35.02V9.82C1281.71 9.1 1281.47 8.78 1281.21 8.55C1281.05 8.41 1280.59 8 1279.38 8H1279.39Z" fill="#F4DE16"/>
</g>
<path d="M1160.91 95.16C1159.07 95.16 1157.62 94.6333 1156.57 93.58C1155.51 92.5267 1154.99 90.9867 1154.99 88.96V81H1156.99V88.88C1156.99 90.44 1157.33 91.58 1158.01 92.3C1158.7 93.02 1159.67 93.38 1160.93 93.38C1162.19 93.38 1163.17 93.02 1163.85 92.3C1164.54 91.58 1164.89 90.44 1164.89 88.88V81H1166.83V88.96C1166.83 90.9867 1166.3 92.5267 1165.25 93.58C1164.21 94.6333 1162.76 95.16 1160.91 95.16ZM1175.01 95.16C1173.94 95.16 1172.92 95 1171.95 94.68C1170.97 94.3467 1170.21 93.92 1169.65 93.4L1170.39 91.84C1170.92 92.3067 1171.6 92.6933 1172.43 93C1173.25 93.3067 1174.11 93.46 1175.01 93.46C1175.82 93.46 1176.48 93.3667 1176.99 93.18C1177.49 92.9933 1177.87 92.74 1178.11 92.42C1178.35 92.0867 1178.47 91.7133 1178.47 91.3C1178.47 90.82 1178.31 90.4333 1177.99 90.14C1177.68 89.8467 1177.27 89.6133 1176.77 89.44C1176.27 89.2533 1175.73 89.0933 1175.13 88.96C1174.53 88.8267 1173.92 88.6733 1173.31 88.5C1172.71 88.3133 1172.15 88.08 1171.65 87.8C1171.15 87.52 1170.75 87.1467 1170.45 86.68C1170.14 86.2 1169.99 85.5867 1169.99 84.84C1169.99 84.12 1170.17 83.46 1170.55 82.86C1170.93 82.2467 1171.52 81.76 1172.31 81.4C1173.11 81.0267 1174.12 80.84 1175.35 80.84C1176.16 80.84 1176.97 80.9467 1177.77 81.16C1178.57 81.3733 1179.26 81.68 1179.85 82.08L1179.19 83.68C1178.59 83.28 1177.95 82.9933 1177.29 82.82C1176.62 82.6333 1175.97 82.54 1175.35 82.54C1174.56 82.54 1173.91 82.64 1173.41 82.84C1172.9 83.04 1172.53 83.3067 1172.29 83.64C1172.06 83.9733 1171.95 84.3467 1171.95 84.76C1171.95 85.2533 1172.1 85.6467 1172.41 85.94C1172.73 86.2333 1173.13 86.4667 1173.63 86.64C1174.13 86.8133 1174.69 86.9733 1175.29 87.12C1175.89 87.2533 1176.49 87.4067 1177.09 87.58C1177.7 87.7533 1178.25 87.98 1178.75 88.26C1179.25 88.54 1179.66 88.9133 1179.97 89.38C1180.27 89.8467 1180.43 90.4467 1180.43 91.18C1180.43 91.8867 1180.23 92.5467 1179.85 93.16C1179.46 93.76 1178.86 94.2467 1178.05 94.62C1177.25 94.98 1176.23 95.16 1175.01 95.16ZM1185.17 87.04H1192.37V88.74H1185.17V87.04ZM1185.35 93.26H1193.51V95H1183.35V81H1193.23V82.74H1185.35V93.26ZM1198.55 87.62H1205.77V89.34H1198.55V87.62ZM1198.75 95H1196.75V81H1206.63V82.74H1198.75V95ZM1215.24 95.16C1213.4 95.16 1211.96 94.6333 1210.9 93.58C1209.85 92.5267 1209.32 90.9867 1209.32 88.96V81H1211.32V88.88C1211.32 90.44 1211.66 91.58 1212.34 92.3C1213.04 93.02 1214.01 93.38 1215.26 93.38C1216.53 93.38 1217.5 93.02 1218.18 92.3C1218.88 91.58 1219.22 90.44 1219.22 88.88V81H1221.16V88.96C1221.16 90.9867 1220.64 92.5267 1219.58 93.58C1218.54 94.6333 1217.1 95.16 1215.24 95.16ZM1225.26 95V81H1227.26V93.26H1234.84V95H1225.26ZM1242.51 95V81H1248.41C1249.9 81 1251.21 81.2933 1252.35 81.88C1253.49 82.4667 1254.38 83.2867 1255.01 84.34C1255.65 85.3933 1255.97 86.6133 1255.97 88C1255.97 89.3867 1255.65 90.6067 1255.01 91.66C1254.38 92.7133 1253.49 93.5333 1252.35 94.12C1251.21 94.7067 1249.9 95 1248.41 95H1242.51ZM1244.51 93.26H1248.29C1249.45 93.26 1250.45 93.04 1251.29 92.6C1252.14 92.16 1252.8 91.5467 1253.27 90.76C1253.73 89.96 1253.97 89.04 1253.97 88C1253.97 86.9467 1253.73 86.0267 1253.27 85.24C1252.8 84.4533 1252.14 83.84 1251.29 83.4C1250.45 82.96 1249.45 82.74 1248.29 82.74H1244.51V93.26ZM1260.85 87.04H1268.05V88.74H1260.85V87.04ZM1261.03 93.26H1269.19V95H1259.03V81H1268.91V82.74H1261.03V93.26ZM1276.51 95.16C1275.44 95.16 1274.42 95 1273.45 94.68C1272.48 94.3467 1271.71 93.92 1271.15 93.4L1271.89 91.84C1272.42 92.3067 1273.1 92.6933 1273.93 93C1274.76 93.3067 1275.62 93.46 1276.51 93.46C1277.32 93.46 1277.98 93.3667 1278.49 93.18C1279 92.9933 1279.37 92.74 1279.61 92.42C1279.85 92.0867 1279.97 91.7133 1279.97 91.3C1279.97 90.82 1279.81 90.4333 1279.49 90.14C1279.18 89.8467 1278.78 89.6133 1278.27 89.44C1277.78 89.2533 1277.23 89.0933 1276.63 88.96C1276.03 88.8267 1275.42 88.6733 1274.81 88.5C1274.21 88.3133 1273.66 88.08 1273.15 87.8C1272.66 87.52 1272.26 87.1467 1271.95 86.68C1271.64 86.2 1271.49 85.5867 1271.49 84.84C1271.49 84.12 1271.68 83.46 1272.05 82.86C1272.44 82.2467 1273.02 81.76 1273.81 81.4C1274.61 81.0267 1275.62 80.84 1276.85 80.84C1277.66 80.84 1278.47 80.9467 1279.27 81.16C1280.07 81.3733 1280.76 81.68 1281.35 82.08L1280.69 83.68C1280.09 83.28 1279.46 82.9933 1278.79 82.82C1278.12 82.6333 1277.48 82.54 1276.85 82.54C1276.06 82.54 1275.42 82.64 1274.91 82.84C1274.4 83.04 1274.03 83.3067 1273.79 83.64C1273.56 83.9733 1273.45 84.3467 1273.45 84.76C1273.45 85.2533 1273.6 85.6467 1273.91 85.94C1274.23 86.2333 1274.64 86.4667 1275.13 86.64C1275.64 86.8133 1276.19 86.9733 1276.79 87.12C1277.39 87.2533 1277.99 87.4067 1278.59 87.58C1279.2 87.7533 1279.76 87.98 1280.25 88.26C1280.76 88.54 1281.16 88.9133 1281.47 89.38C1281.78 89.8467 1281.93 90.4467 1281.93 91.18C1281.93 91.8867 1281.74 92.5467 1281.35 93.16C1280.96 93.76 1280.36 94.2467 1279.55 94.62C1278.75 94.98 1277.74 95.16 1276.51 95.16ZM1284.85 95V81H1286.85V95H1284.85ZM1297.36 95.16C1296.28 95.16 1295.29 94.9867 1294.38 94.64C1293.48 94.28 1292.69 93.78 1292.02 93.14C1291.36 92.4867 1290.84 91.7267 1290.46 90.86C1290.09 89.9933 1289.9 89.04 1289.9 88C1289.9 86.96 1290.09 86.0067 1290.46 85.14C1290.84 84.2733 1291.36 83.52 1292.02 82.88C1292.7 82.2267 1293.5 81.7267 1294.4 81.38C1295.31 81.02 1296.31 80.84 1297.4 80.84C1298.51 80.84 1299.52 81.02 1300.44 81.38C1301.36 81.74 1302.14 82.28 1302.78 83L1301.54 84.24C1300.97 83.68 1300.34 83.2733 1299.66 83.02C1299 82.7533 1298.27 82.62 1297.48 82.62C1296.68 82.62 1295.94 82.7533 1295.24 83.02C1294.56 83.2867 1293.97 83.66 1293.46 84.14C1292.97 84.62 1292.58 85.1933 1292.3 85.86C1292.04 86.5133 1291.9 87.2267 1291.9 88C1291.9 88.76 1292.04 89.4733 1292.3 90.14C1292.58 90.7933 1292.97 91.3667 1293.46 91.86C1293.97 92.34 1294.56 92.7133 1295.24 92.98C1295.92 93.2467 1296.66 93.38 1297.46 93.38C1298.21 93.38 1298.92 93.2667 1299.6 93.04C1300.3 92.8 1300.94 92.4067 1301.52 91.86L1302.66 93.38C1301.97 93.9667 1301.16 94.4133 1300.22 94.72C1299.3 95.0133 1298.35 95.16 1297.36 95.16ZM1300.74 93.12V87.92H1302.66V93.38L1300.74 93.12ZM1306.49 95V81H1308.13L1317.39 92.5H1316.53V81H1318.53V95H1316.89L1307.63 83.5H1308.49V95H1306.49ZM1156.4 111.62H1163.62V113.34H1156.4V111.62ZM1156.6 119H1154.6V105H1164.48V106.74H1156.6V119ZM1173.46 119.16C1172.39 119.16 1171.4 118.98 1170.48 118.62C1169.57 118.26 1168.78 117.76 1168.12 117.12C1167.45 116.467 1166.93 115.707 1166.56 114.84C1166.18 113.973 1166 113.027 1166 112C1166 110.973 1166.18 110.027 1166.56 109.16C1166.93 108.293 1167.45 107.54 1168.12 106.9C1168.78 106.247 1169.57 105.74 1170.48 105.38C1171.38 105.02 1172.38 104.84 1173.46 104.84C1174.52 104.84 1175.5 105.02 1176.4 105.38C1177.3 105.727 1178.09 106.227 1178.76 106.88C1179.44 107.52 1179.96 108.273 1180.32 109.14C1180.69 110.007 1180.88 110.96 1180.88 112C1180.88 113.04 1180.69 113.993 1180.32 114.86C1179.96 115.727 1179.44 116.487 1178.76 117.14C1178.09 117.78 1177.3 118.28 1176.4 118.64C1175.5 118.987 1174.52 119.16 1173.46 119.16ZM1173.46 117.38C1174.23 117.38 1174.94 117.247 1175.6 116.98C1176.26 116.713 1176.84 116.34 1177.32 115.86C1177.81 115.367 1178.19 114.793 1178.46 114.14C1178.74 113.487 1178.88 112.773 1178.88 112C1178.88 111.227 1178.74 110.513 1178.46 109.86C1178.19 109.207 1177.81 108.64 1177.32 108.16C1176.84 107.667 1176.26 107.287 1175.6 107.02C1174.94 106.753 1174.23 106.62 1173.46 106.62C1172.67 106.62 1171.94 106.753 1171.28 107.02C1170.62 107.287 1170.05 107.667 1169.56 108.16C1169.06 108.64 1168.68 109.207 1168.4 109.86C1168.13 110.513 1168 111.227 1168 112C1168 112.773 1168.13 113.487 1168.4 114.14C1168.68 114.793 1169.06 115.367 1169.56 115.86C1170.05 116.34 1170.62 116.713 1171.28 116.98C1171.94 117.247 1172.67 117.38 1173.46 117.38ZM1183.93 119V105H1189.39C1190.62 105 1191.67 105.193 1192.53 105.58C1193.4 105.967 1194.07 106.527 1194.53 107.26C1195 107.993 1195.23 108.867 1195.23 109.88C1195.23 110.893 1195 111.767 1194.53 112.5C1194.07 113.22 1193.4 113.773 1192.53 114.16C1191.67 114.547 1190.62 114.74 1189.39 114.74H1185.03L1185.93 113.82V119H1183.93ZM1193.29 119L1189.73 113.92H1191.87L1195.47 119H1193.29ZM1185.93 114.02L1185.03 113.04H1189.33C1190.61 113.04 1191.58 112.767 1192.23 112.22C1192.9 111.66 1193.23 110.88 1193.23 109.88C1193.23 108.88 1192.9 108.107 1192.23 107.56C1191.58 107.013 1190.61 106.74 1189.33 106.74H1185.03L1185.93 105.74V114.02ZM1205.66 111.04H1212.86V112.74H1205.66V111.04ZM1205.84 117.26H1214V119H1203.84V105H1213.72V106.74H1205.84V117.26ZM1217.23 119V105H1223.13C1224.63 105 1225.94 105.293 1227.07 105.88C1228.22 106.467 1229.11 107.287 1229.73 108.34C1230.37 109.393 1230.69 110.613 1230.69 112C1230.69 113.387 1230.37 114.607 1229.73 115.66C1229.11 116.713 1228.22 117.533 1227.07 118.12C1225.94 118.707 1224.63 119 1223.13 119H1217.23ZM1219.23 117.26H1223.01C1224.17 117.26 1225.17 117.04 1226.01 116.6C1226.87 116.16 1227.53 115.547 1227.99 114.76C1228.46 113.96 1228.69 113.04 1228.69 112C1228.69 110.947 1228.46 110.027 1227.99 109.24C1227.53 108.453 1226.87 107.84 1226.01 107.4C1225.17 106.96 1224.17 106.74 1223.01 106.74H1219.23V117.26ZM1239.56 119.16C1237.72 119.16 1236.27 118.633 1235.22 117.58C1234.16 116.527 1233.64 114.987 1233.64 112.96V105H1235.64V112.88C1235.64 114.44 1235.98 115.58 1236.66 116.3C1237.35 117.02 1238.32 117.38 1239.58 117.38C1240.84 117.38 1241.82 117.02 1242.5 116.3C1243.19 115.58 1243.54 114.44 1243.54 112.88V105H1245.48V112.96C1245.48 114.987 1244.95 116.527 1243.9 117.58C1242.86 118.633 1241.41 119.16 1239.56 119.16ZM1255.84 119.16C1254.77 119.16 1253.79 118.987 1252.88 118.64C1251.99 118.28 1251.21 117.78 1250.54 117.14C1249.89 116.487 1249.37 115.727 1249 114.86C1248.63 113.993 1248.44 113.04 1248.44 112C1248.44 110.96 1248.63 110.007 1249 109.14C1249.37 108.273 1249.89 107.52 1250.56 106.88C1251.23 106.227 1252.01 105.727 1252.9 105.38C1253.81 105.02 1254.79 104.84 1255.86 104.84C1256.94 104.84 1257.93 105.027 1258.84 105.4C1259.76 105.76 1260.54 106.3 1261.18 107.02L1259.88 108.28C1259.35 107.72 1258.75 107.307 1258.08 107.04C1257.41 106.76 1256.7 106.62 1255.94 106.62C1255.15 106.62 1254.42 106.753 1253.74 107.02C1253.07 107.287 1252.49 107.66 1252 108.14C1251.51 108.62 1251.12 109.193 1250.84 109.86C1250.57 110.513 1250.44 111.227 1250.44 112C1250.44 112.773 1250.57 113.493 1250.84 114.16C1251.12 114.813 1251.51 115.38 1252 115.86C1252.49 116.34 1253.07 116.713 1253.74 116.98C1254.42 117.247 1255.15 117.38 1255.94 117.38C1256.7 117.38 1257.41 117.247 1258.08 116.98C1258.75 116.7 1259.35 116.273 1259.88 115.7L1261.18 116.96C1260.54 117.68 1259.76 118.227 1258.84 118.6C1257.93 118.973 1256.93 119.16 1255.84 119.16ZM1261.58 119L1267.92 105H1269.9L1276.26 119H1274.16L1268.5 106.12H1269.3L1263.64 119H1261.58ZM1264.28 115.5L1264.82 113.9H1272.7L1273.28 115.5H1264.28ZM1280.42 119V106.74H1275.62V105H1287.2V106.74H1282.4V119H1280.42ZM1289.38 119V105H1291.38V119H1289.38ZM1301.89 119.16C1300.83 119.16 1299.83 118.98 1298.91 118.62C1298.01 118.26 1297.22 117.76 1296.55 117.12C1295.89 116.467 1295.37 115.707 1294.99 114.84C1294.62 113.973 1294.43 113.027 1294.43 112C1294.43 110.973 1294.62 110.027 1294.99 109.16C1295.37 108.293 1295.89 107.54 1296.55 106.9C1297.22 106.247 1298.01 105.74 1298.91 105.38C1299.82 105.02 1300.81 104.84 1301.89 104.84C1302.96 104.84 1303.94 105.02 1304.83 105.38C1305.74 105.727 1306.53 106.227 1307.19 106.88C1307.87 107.52 1308.39 108.273 1308.75 109.14C1309.13 110.007 1309.31 110.96 1309.31 112C1309.31 113.04 1309.13 113.993 1308.75 114.86C1308.39 115.727 1307.87 116.487 1307.19 117.14C1306.53 117.78 1305.74 118.28 1304.83 118.64C1303.94 118.987 1302.96 119.16 1301.89 119.16ZM1301.89 117.38C1302.67 117.38 1303.38 117.247 1304.03 116.98C1304.7 116.713 1305.27 116.34 1305.75 115.86C1306.25 115.367 1306.63 114.793 1306.89 114.14C1307.17 113.487 1307.31 112.773 1307.31 112C1307.31 111.227 1307.17 110.513 1306.89 109.86C1306.63 109.207 1306.25 108.64 1305.75 108.16C1305.27 107.667 1304.7 107.287 1304.03 107.02C1303.38 106.753 1302.67 106.62 1301.89 106.62C1301.11 106.62 1300.38 106.753 1299.71 107.02C1299.06 107.287 1298.49 107.667 1297.99 108.16C1297.5 108.64 1297.11 109.207 1296.83 109.86C1296.57 110.513 1296.43 111.227 1296.43 112C1296.43 112.773 1296.57 113.487 1296.83 114.14C1297.11 114.793 1297.5 115.367 1297.99 115.86C1298.49 116.34 1299.06 116.713 1299.71 116.98C1300.38 117.247 1301.11 117.38 1301.89 117.38ZM1312.37 119V105H1314.01L1323.27 116.5H1322.41V105H1324.41V119H1322.77L1313.51 107.5H1314.37V119H1312.37Z" fill="black"/>
<path d="M359.906 95.16C358.066 95.16 356.619 94.6333 355.566 93.58C354.513 92.5267 353.986 90.9867 353.986 88.96V81H355.986V88.88C355.986 90.44 356.326 91.58 357.006 92.3C357.699 93.02 358.673 93.38 359.926 93.38C361.193 93.38 362.166 93.02 362.846 92.3C363.539 91.58 363.886 90.44 363.886 88.88V81H365.826V88.96C365.826 90.9867 365.299 92.5267 364.246 93.58C363.206 94.6333 361.759 95.16 359.906 95.16ZM374.006 95.16C372.94 95.16 371.92 95 370.946 94.68C369.973 94.3467 369.206 93.92 368.646 93.4L369.386 91.84C369.92 92.3067 370.6 92.6933 371.426 93C372.253 93.3067 373.113 93.46 374.006 93.46C374.82 93.46 375.48 93.3667 375.986 93.18C376.493 92.9933 376.866 92.74 377.106 92.42C377.346 92.0867 377.466 91.7133 377.466 91.3C377.466 90.82 377.306 90.4333 376.986 90.14C376.68 89.8467 376.273 89.6133 375.766 89.44C375.273 89.2533 374.726 89.0933 374.126 88.96C373.526 88.8267 372.92 88.6733 372.306 88.5C371.706 88.3133 371.153 88.08 370.646 87.8C370.153 87.52 369.753 87.1467 369.446 86.68C369.14 86.2 368.986 85.5867 368.986 84.84C368.986 84.12 369.173 83.46 369.546 82.86C369.933 82.2467 370.52 81.76 371.306 81.4C372.106 81.0267 373.12 80.84 374.346 80.84C375.16 80.84 375.966 80.9467 376.766 81.16C377.566 81.3733 378.26 81.68 378.846 82.08L378.186 83.68C377.586 83.28 376.953 82.9933 376.286 82.82C375.62 82.6333 374.973 82.54 374.346 82.54C373.56 82.54 372.913 82.64 372.406 82.84C371.9 83.04 371.526 83.3067 371.286 83.64C371.06 83.9733 370.946 84.3467 370.946 84.76C370.946 85.2533 371.1 85.6467 371.406 85.94C371.726 86.2333 372.133 86.4667 372.626 86.64C373.133 86.8133 373.686 86.9733 374.286 87.12C374.886 87.2533 375.486 87.4067 376.086 87.58C376.7 87.7533 377.253 87.98 377.746 88.26C378.253 88.54 378.66 88.9133 378.966 89.38C379.273 89.8467 379.426 90.4467 379.426 91.18C379.426 91.8867 379.233 92.5467 378.846 93.16C378.46 93.76 377.86 94.2467 377.046 94.62C376.246 94.98 375.233 95.16 374.006 95.16ZM384.168 87.04H391.368V88.74H384.168V87.04ZM384.348 93.26H392.508V95H382.348V81H392.228V82.74H384.348V93.26ZM397.546 87.62H404.766V89.34H397.546V87.62ZM397.746 95H395.746V81H405.626V82.74H397.746V95ZM414.242 95.16C412.402 95.16 410.955 94.6333 409.902 93.58C408.848 92.5267 408.322 90.9867 408.322 88.96V81H410.322V88.88C410.322 90.44 410.662 91.58 411.342 92.3C412.035 93.02 413.008 93.38 414.262 93.38C415.528 93.38 416.502 93.02 417.182 92.3C417.875 91.58 418.222 90.44 418.222 88.88V81H420.162V88.96C420.162 90.9867 419.635 92.5267 418.582 93.58C417.542 94.6333 416.095 95.16 414.242 95.16ZM424.262 95V81H426.262V93.26H433.842V95H424.262ZM441.508 95V81H447.408C448.902 81 450.215 81.2933 451.348 81.88C452.495 82.4667 453.382 83.2867 454.008 84.34C454.648 85.3933 454.968 86.6133 454.968 88C454.968 89.3867 454.648 90.6067 454.008 91.66C453.382 92.7133 452.495 93.5333 451.348 94.12C450.215 94.7067 448.902 95 447.408 95H441.508ZM443.508 93.26H447.288C448.448 93.26 449.448 93.04 450.288 92.6C451.142 92.16 451.802 91.5467 452.268 90.76C452.735 89.96 452.968 89.04 452.968 88C452.968 86.9467 452.735 86.0267 452.268 85.24C451.802 84.4533 451.142 83.84 450.288 83.4C449.448 82.96 448.448 82.74 447.288 82.74H443.508V93.26ZM459.852 87.04H467.052V88.74H459.852V87.04ZM460.032 93.26H468.192V95H458.032V81H467.912V82.74H460.032V93.26ZM475.51 95.16C474.443 95.16 473.423 95 472.45 94.68C471.477 94.3467 470.71 93.92 470.15 93.4L470.89 91.84C471.423 92.3067 472.103 92.6933 472.93 93C473.757 93.3067 474.617 93.46 475.51 93.46C476.323 93.46 476.983 93.3667 477.49 93.18C477.997 92.9933 478.37 92.74 478.61 92.42C478.85 92.0867 478.97 91.7133 478.97 91.3C478.97 90.82 478.81 90.4333 478.49 90.14C478.183 89.8467 477.777 89.6133 477.27 89.44C476.777 89.2533 476.23 89.0933 475.63 88.96C475.03 88.8267 474.423 88.6733 473.81 88.5C473.21 88.3133 472.657 88.08 472.15 87.8C471.657 87.52 471.257 87.1467 470.95 86.68C470.643 86.2 470.49 85.5867 470.49 84.84C470.49 84.12 470.677 83.46 471.05 82.86C471.437 82.2467 472.023 81.76 472.81 81.4C473.61 81.0267 474.623 80.84 475.85 80.84C476.663 80.84 477.47 80.9467 478.27 81.16C479.07 81.3733 479.763 81.68 480.35 82.08L479.69 83.68C479.09 83.28 478.457 82.9933 477.79 82.82C477.123 82.6333 476.477 82.54 475.85 82.54C475.063 82.54 474.417 82.64 473.91 82.84C473.403 83.04 473.03 83.3067 472.79 83.64C472.563 83.9733 472.45 84.3467 472.45 84.76C472.45 85.2533 472.603 85.6467 472.91 85.94C473.23 86.2333 473.637 86.4667 474.13 86.64C474.637 86.8133 475.19 86.9733 475.79 87.12C476.39 87.2533 476.99 87.4067 477.59 87.58C478.203 87.7533 478.757 87.98 479.25 88.26C479.757 88.54 480.163 88.9133 480.47 89.38C480.777 89.8467 480.93 90.4467 480.93 91.18C480.93 91.8867 480.737 92.5467 480.35 93.16C479.963 93.76 479.363 94.2467 478.55 94.62C477.75 94.98 476.737 95.16 475.51 95.16ZM483.852 95V81H485.852V95H483.852ZM496.363 95.16C495.283 95.16 494.29 94.9867 493.383 94.64C492.477 94.28 491.69 93.78 491.023 93.14C490.357 92.4867 489.837 91.7267 489.463 90.86C489.09 89.9933 488.903 89.04 488.903 88C488.903 86.96 489.09 86.0067 489.463 85.14C489.837 84.2733 490.357 83.52 491.023 82.88C491.703 82.2267 492.497 81.7267 493.403 81.38C494.31 81.02 495.31 80.84 496.403 80.84C497.51 80.84 498.523 81.02 499.443 81.38C500.363 81.74 501.143 82.28 501.783 83L500.543 84.24C499.97 83.68 499.343 83.2733 498.663 83.02C497.997 82.7533 497.27 82.62 496.483 82.62C495.683 82.62 494.937 82.7533 494.243 83.02C493.563 83.2867 492.97 83.66 492.463 84.14C491.97 84.62 491.583 85.1933 491.303 85.86C491.037 86.5133 490.903 87.2267 490.903 88C490.903 88.76 491.037 89.4733 491.303 90.14C491.583 90.7933 491.97 91.3667 492.463 91.86C492.97 92.34 493.563 92.7133 494.243 92.98C494.923 93.2467 495.663 93.38 496.463 93.38C497.21 93.38 497.923 93.2667 498.603 93.04C499.297 92.8 499.937 92.4067 500.523 91.86L501.663 93.38C500.97 93.9667 500.157 94.4133 499.223 94.72C498.303 95.0133 497.35 95.16 496.363 95.16ZM499.743 93.12V87.92H501.663V93.38L499.743 93.12ZM505.493 95V81H507.133L516.393 92.5H515.533V81H517.533V95H515.893L506.633 83.5H507.493V95H505.493ZM355.398 111.62H362.618V113.34H355.398V111.62ZM355.598 119H353.598V105H363.478V106.74H355.598V119ZM372.457 119.16C371.39 119.16 370.397 118.98 369.477 118.62C368.57 118.26 367.784 117.76 367.117 117.12C366.45 116.467 365.93 115.707 365.557 114.84C365.184 113.973 364.997 113.027 364.997 112C364.997 110.973 365.184 110.027 365.557 109.16C365.93 108.293 366.45 107.54 367.117 106.9C367.784 106.247 368.57 105.74 369.477 105.38C370.384 105.02 371.377 104.84 372.457 104.84C373.524 104.84 374.504 105.02 375.397 105.38C376.304 105.727 377.09 106.227 377.757 106.88C378.437 107.52 378.957 108.273 379.317 109.14C379.69 110.007 379.877 110.96 379.877 112C379.877 113.04 379.69 113.993 379.317 114.86C378.957 115.727 378.437 116.487 377.757 117.14C377.09 117.78 376.304 118.28 375.397 118.64C374.504 118.987 373.524 119.16 372.457 119.16ZM372.457 117.38C373.23 117.38 373.944 117.247 374.597 116.98C375.264 116.713 375.837 116.34 376.317 115.86C376.81 115.367 377.19 114.793 377.457 114.14C377.737 113.487 377.877 112.773 377.877 112C377.877 111.227 377.737 110.513 377.457 109.86C377.19 109.207 376.81 108.64 376.317 108.16C375.837 107.667 375.264 107.287 374.597 107.02C373.944 106.753 373.23 106.62 372.457 106.62C371.67 106.62 370.944 106.753 370.277 107.02C369.624 107.287 369.05 107.667 368.557 108.16C368.064 108.64 367.677 109.207 367.397 109.86C367.13 110.513 366.997 111.227 366.997 112C366.997 112.773 367.13 113.487 367.397 114.14C367.677 114.793 368.064 115.367 368.557 115.86C369.05 116.34 369.624 116.713 370.277 116.98C370.944 117.247 371.67 117.38 372.457 117.38ZM382.934 119V105H388.394C389.621 105 390.667 105.193 391.534 105.58C392.401 105.967 393.067 106.527 393.534 107.26C394.001 107.993 394.234 108.867 394.234 109.88C394.234 110.893 394.001 111.767 393.534 112.5C393.067 113.22 392.401 113.773 391.534 114.16C390.667 114.547 389.621 114.74 388.394 114.74H384.034L384.934 113.82V119H382.934ZM392.294 119L388.734 113.92H390.874L394.474 119H392.294ZM384.934 114.02L384.034 113.04H388.334C389.614 113.04 390.581 112.767 391.234 112.22C391.901 111.66 392.234 110.88 392.234 109.88C392.234 108.88 391.901 108.107 391.234 107.56C390.581 107.013 389.614 106.74 388.334 106.74H384.034L384.934 105.74V114.02ZM404.656 111.04H411.856V112.74H404.656V111.04ZM404.836 117.26H412.996V119H402.836V105H412.716V106.74H404.836V117.26ZM416.235 119V105H422.135C423.628 105 424.941 105.293 426.075 105.88C427.221 106.467 428.108 107.287 428.735 108.34C429.375 109.393 429.695 110.613 429.695 112C429.695 113.387 429.375 114.607 428.735 115.66C428.108 116.713 427.221 117.533 426.075 118.12C424.941 118.707 423.628 119 422.135 119H416.235ZM418.235 117.26H422.015C423.175 117.26 424.175 117.04 425.015 116.6C425.868 116.16 426.528 115.547 426.995 114.76C427.461 113.96 427.695 113.04 427.695 112C427.695 110.947 427.461 110.027 426.995 109.24C426.528 108.453 425.868 107.84 425.015 107.4C424.175 106.96 423.175 106.74 422.015 106.74H418.235V117.26ZM438.558 119.16C436.718 119.16 435.272 118.633 434.218 117.58C433.165 116.527 432.638 114.987 432.638 112.96V105H434.638V112.88C434.638 114.44 434.978 115.58 435.658 116.3C436.352 117.02 437.325 117.38 438.578 117.38C439.845 117.38 440.818 117.02 441.498 116.3C442.192 115.58 442.538 114.44 442.538 112.88V105H444.478V112.96C444.478 114.987 443.952 116.527 442.898 117.58C441.858 118.633 440.412 119.16 438.558 119.16ZM454.839 119.16C453.772 119.16 452.785 118.987 451.879 118.64C450.985 118.28 450.205 117.78 449.539 117.14C448.885 116.487 448.372 115.727 447.999 114.86C447.625 113.993 447.439 113.04 447.439 112C447.439 110.96 447.625 110.007 447.999 109.14C448.372 108.273 448.892 107.52 449.559 106.88C450.225 106.227 451.005 105.727 451.899 105.38C452.805 105.02 453.792 104.84 454.859 104.84C455.939 104.84 456.932 105.027 457.839 105.4C458.759 105.76 459.539 106.3 460.179 107.02L458.879 108.28C458.345 107.72 457.745 107.307 457.079 107.04C456.412 106.76 455.699 106.62 454.939 106.62C454.152 106.62 453.419 106.753 452.739 107.02C452.072 107.287 451.492 107.66 450.999 108.14C450.505 108.62 450.119 109.193 449.839 109.86C449.572 110.513 449.439 111.227 449.439 112C449.439 112.773 449.572 113.493 449.839 114.16C450.119 114.813 450.505 115.38 450.999 115.86C451.492 116.34 452.072 116.713 452.739 116.98C453.419 117.247 454.152 117.38 454.939 117.38C455.699 117.38 456.412 117.247 457.079 116.98C457.745 116.7 458.345 116.273 458.879 115.7L460.179 116.96C459.539 117.68 458.759 118.227 457.839 118.6C456.932 118.973 455.932 119.16 454.839 119.16ZM460.58 119L466.92 105H468.9L475.26 119H473.16L467.5 106.12H468.3L462.64 119H460.58ZM463.28 115.5L463.82 113.9H471.7L472.28 115.5H463.28ZM479.425 119V106.74H474.625V105H486.205V106.74H481.405V119H479.425ZM488.383 119V105H490.383V119H488.383ZM500.895 119.16C499.828 119.16 498.835 118.98 497.915 118.62C497.008 118.26 496.221 117.76 495.555 117.12C494.888 116.467 494.368 115.707 493.995 114.84C493.621 113.973 493.435 113.027 493.435 112C493.435 110.973 493.621 110.027 493.995 109.16C494.368 108.293 494.888 107.54 495.555 106.9C496.221 106.247 497.008 105.74 497.915 105.38C498.821 105.02 499.815 104.84 500.895 104.84C501.961 104.84 502.941 105.02 503.835 105.38C504.741 105.727 505.528 106.227 506.195 106.88C506.875 107.52 507.395 108.273 507.755 109.14C508.128 110.007 508.315 110.96 508.315 112C508.315 113.04 508.128 113.993 507.755 114.86C507.395 115.727 506.875 116.487 506.195 117.14C505.528 117.78 504.741 118.28 503.835 118.64C502.941 118.987 501.961 119.16 500.895 119.16ZM500.895 117.38C501.668 117.38 502.381 117.247 503.035 116.98C503.701 116.713 504.275 116.34 504.755 115.86C505.248 115.367 505.628 114.793 505.895 114.14C506.175 113.487 506.315 112.773 506.315 112C506.315 111.227 506.175 110.513 505.895 109.86C505.628 109.207 505.248 108.64 504.755 108.16C504.275 107.667 503.701 107.287 503.035 107.02C502.381 106.753 501.668 106.62 500.895 106.62C500.108 106.62 499.381 106.753 498.715 107.02C498.061 107.287 497.488 107.667 496.995 108.16C496.501 108.64 496.115 109.207 495.835 109.86C495.568 110.513 495.435 111.227 495.435 112C495.435 112.773 495.568 113.487 495.835 114.14C496.115 114.793 496.501 115.367 496.995 115.86C497.488 116.34 498.061 116.713 498.715 116.98C499.381 117.247 500.108 117.38 500.895 117.38ZM511.371 119V105H513.011L522.271 116.5H521.411V105H523.411V119H521.771L512.511 107.5H513.371V119H511.371Z" fill="black"/>
<g clip-path="url(#clip2_312_465)">
<path d="M5.52 50.02C3.5 48.1 2.5 45.41 2.5 41.96V13.16C2.5 9.8 3.47 7.18 5.42 5.31C7.36 3.44 10.06 2.5 13.52 2.5H35.91C37.35 2.5 38.45 2.82 39.22 3.47C39.99 4.12 40.37 5.04 40.37 6.24C40.37 7.44 39.97 8.29 39.18 8.94C38.39 9.59 37.3 9.91 35.9 9.91H15.17C14.21 9.91 13.45 10.22 12.9 10.85C12.35 11.48 12.07 12.34 12.07 13.44V23.45H30.43C31.87 23.45 32.97 23.77 33.74 24.42C34.51 25.07 34.89 25.99 34.89 27.19C34.89 28.39 34.49 29.24 33.7 29.89C32.91 30.54 31.82 30.86 30.42 30.86H12.08V41.95C12.08 43.05 12.36 43.92 12.91 44.54C13.46 45.16 14.22 45.48 15.18 45.48H37.5C38.94 45.48 40.04 45.8 40.81 46.45C41.58 47.1 41.96 48.02 41.96 49.22C41.96 50.42 41.56 51.27 40.77 51.92C39.98 52.57 38.89 52.89 37.49 52.89H14.02C10.37 52.89 7.54 51.93 5.52 50.01V50.02Z" fill="#55EDB6"/>
<path d="M37.49 55.4H14.02C9.73 55.4 6.29 54.2 3.8 51.83C1.28 49.43 0 46.11 0 41.95V13.16C0 9.11 1.24 5.86 3.68 3.51C6.1 1.18 9.41 0 13.52 0H35.91C37.95 0 39.61 0.53 40.83 1.56C41.76 2.35 42.87 3.8 42.87 6.24C42.87 8.15 42.14 9.75 40.76 10.88C39.51 11.9 37.88 12.42 35.9 12.42H15.17C14.86 12.42 14.8 12.49 14.77 12.51C14.64 12.65 14.57 13 14.57 13.45V20.96H30.43C32.47 20.96 34.13 21.49 35.35 22.52C36.28 23.31 37.39 24.76 37.39 27.2C37.39 29.11 36.66 30.71 35.29 31.83C34.04 32.85 32.41 33.37 30.43 33.37H14.57V41.96C14.57 42.4 14.64 42.75 14.77 42.89C14.79 42.92 14.85 42.98 15.17 42.98H37.49C39.53 42.98 41.19 43.51 42.41 44.54C43.34 45.33 44.45 46.78 44.45 49.22C44.45 51.13 43.72 52.73 42.34 53.85C41.09 54.87 39.46 55.39 37.48 55.39L37.49 55.4ZM13.52 5C10.71 5 8.63 5.69 7.15 7.11C5.7 8.5 5 10.48 5 13.16V41.96C5 44.73 5.74 46.77 7.25 48.21C8.8 49.69 11.01 50.4 14.02 50.4H37.49C38.03 50.4 38.77 50.33 39.18 49.99C39.29 49.9 39.45 49.77 39.45 49.23C39.45 48.59 39.26 48.44 39.19 48.37C38.9 48.12 38.29 47.99 37.49 47.99H15.17C13.05 47.99 11.75 47.02 11.03 46.21C10.07 45.12 9.57 43.69 9.57 41.96V28.37H30.43C30.98 28.37 31.71 28.3 32.12 27.96C32.23 27.87 32.39 27.74 32.39 27.19C32.39 26.55 32.2 26.39 32.12 26.33C31.83 26.09 31.21 25.95 30.42 25.95H9.58V13.44C9.58 11.71 10.07 10.28 11.04 9.19C12.07 8.02 13.5 7.41 15.18 7.41H35.92C36.47 7.41 37.2 7.34 37.61 7C37.72 6.91 37.88 6.78 37.88 6.24C37.88 5.6 37.69 5.45 37.61 5.38C37.32 5.13 36.71 5 35.91 5H13.52Z" fill="#55EDB6"/>
<path d="M62.02 50.02C60 48.1 59 45.41 59 41.96V13.16C59 9.8 59.97 7.18 61.92 5.31C63.86 3.44 66.56 2.5 70.02 2.5H80.1C85.62 2.5 90.4 3.51 94.43 5.52C98.46 7.53 101.55 10.44 103.68 14.23C105.82 18.02 106.88 22.53 106.88 27.77C106.88 33.01 105.81 37.5 103.68 41.27C101.54 45.04 98.47 47.92 94.46 49.91C90.45 51.9 85.66 52.9 80.1 52.9H70.52C66.87 52.9 64.04 51.94 62.02 50.02ZM79.37 45.48C85.37 45.48 89.83 44.03 92.76 41.12C95.69 38.22 97.15 33.76 97.15 27.76C97.15 21.76 95.67 17.28 92.72 14.33C89.77 11.38 85.32 9.9 79.36 9.9H71.66C70.7 9.9 69.94 10.21 69.39 10.84C68.84 11.47 68.56 12.33 68.56 13.43V41.94C68.56 43.04 68.84 43.91 69.39 44.53C69.94 45.15 70.7 45.47 71.66 45.47H79.36L79.37 45.48Z" fill="#55EDB6"/>
<path d="M80.1 55.4H70.52C66.22 55.4 62.79 54.2 60.3 51.83C57.78 49.43 56.5 46.11 56.5 41.96V13.16C56.5 9.11 57.74 5.86 60.18 3.51C62.6 1.18 65.91 0 70.01 0H80.09C85.98 0 91.17 1.11 95.54 3.29C100.01 5.52 103.48 8.79 105.85 13.01C108.19 17.17 109.38 22.13 109.38 27.77C109.38 33.41 108.19 38.37 105.85 42.5C103.47 46.69 100.02 49.94 95.57 52.15C91.23 54.31 86.02 55.4 80.09 55.4H80.1ZM70.02 5C67.21 5 65.13 5.69 63.65 7.11C62.2 8.5 61.5 10.48 61.5 13.16V41.96C61.5 44.73 62.24 46.77 63.75 48.21C65.3 49.69 67.51 50.4 70.52 50.4H80.1C85.25 50.4 89.71 49.48 93.35 47.67C96.93 45.89 99.6 43.39 101.5 40.04C103.41 36.67 104.38 32.54 104.38 27.77C104.38 23 103.41 18.86 101.5 15.46C99.6 12.08 96.92 9.56 93.31 7.76C89.65 5.93 85.2 5 80.1 5H70.02ZM79.38 47.98H71.68C69.56 47.98 68.26 47.01 67.54 46.2C66.58 45.11 66.08 43.68 66.08 41.95V13.44C66.08 11.71 66.57 10.28 67.54 9.19C68.57 8.02 70 7.41 71.68 7.41H79.38C85.99 7.41 91.08 9.15 94.5 12.57C97.92 15.99 99.66 21.11 99.66 27.77C99.66 34.43 97.93 39.52 94.53 42.9C91.13 46.27 86.03 47.98 79.38 47.98ZM71.68 12.41C71.37 12.41 71.31 12.48 71.28 12.5C71.15 12.64 71.08 12.99 71.08 13.44V41.95C71.08 42.39 71.15 42.74 71.28 42.88C71.3 42.91 71.36 42.97 71.68 42.97H79.38C84.67 42.97 88.58 41.75 91.01 39.34C93.43 36.94 94.66 33.04 94.66 27.76C94.66 22.48 93.42 18.55 90.96 16.1C88.51 13.65 84.61 12.4 79.37 12.4H71.67L71.68 12.41Z" fill="#55EDB6"/>
<path d="M213.63 66.3801C213.63 67.5301 213.15 68.5201 212.19 69.3301C211.42 69.9501 210.56 70.2701 209.6 70.2701C208.3 70.2701 207.1 69.7201 206 68.6101L195.63 57.5201L185.19 68.6101C184.08 69.7101 182.89 70.2701 181.59 70.2701C180.63 70.2701 179.76 69.9601 179 69.3301C178.04 68.5101 177.56 67.5301 177.56 66.3801C177.56 65.3301 177.94 64.4101 178.71 63.6401L190.01 51.6201L179.64 40.6001C178.73 39.5901 178.27 38.5601 178.27 37.5001C178.27 36.3501 178.75 35.3601 179.71 34.5501C180.38 33.9301 181.22 33.6101 182.23 33.6101C183.53 33.6101 184.8 34.2301 186.05 35.4801L195.63 45.6301L205.13 35.4801C206.38 34.2301 207.65 33.6101 208.95 33.6101C209.96 33.6101 210.8 33.9201 211.47 34.5501C212.43 35.3701 212.91 36.3501 212.91 37.5001C212.91 38.5601 212.45 39.5901 211.54 40.6001L201.17 51.6201L212.47 63.6401C213.24 64.4101 213.62 65.3201 213.62 66.3801H213.63Z" fill="#55EDB6"/>
<path d="M209.6 72.7699C207.62 72.7699 205.82 71.9699 204.23 70.3799L195.62 61.1799L187.01 70.3299C185.37 71.9699 183.56 72.7699 181.59 72.7699C180.04 72.7699 178.64 72.2699 177.42 71.2699C175.86 69.9499 175.06 68.2699 175.06 66.3799C175.06 64.6699 175.71 63.1099 176.94 61.8799L186.58 51.6199L177.82 42.3199C176.45 40.8099 175.77 39.1999 175.77 37.5099C175.77 35.6399 176.56 33.9699 178.05 32.6899C179.17 31.6699 180.62 31.1299 182.23 31.1299C184.21 31.1299 186.08 32.0099 187.81 33.7299L195.61 41.9999L203.3 33.7899C205.09 31.9999 206.97 31.1299 208.94 31.1299C210.55 31.1299 211.99 31.6699 213.12 32.6899C214.61 33.9799 215.4 35.6399 215.4 37.5099C215.4 39.1999 214.72 40.7999 213.39 42.2799L204.6 51.6199L214.29 61.9299C215.47 63.1099 216.12 64.6699 216.12 66.3799C216.12 68.2699 215.32 69.9499 213.8 71.2399C212.53 72.2699 211.13 72.7699 209.59 72.7699H209.6ZM195.64 53.8699L207.83 66.8999C208.6 67.6699 209.21 67.7599 209.6 67.7599C209.99 67.7599 210.29 67.6499 210.62 67.3799C211.09 66.9799 211.13 66.6499 211.13 66.3699C211.13 65.9799 211.01 65.6999 210.71 65.3999L197.74 51.6099L209.72 38.8799C210.16 38.3899 210.41 37.9099 210.41 37.4999C210.41 37.2199 210.37 36.8899 209.85 36.4499L209.77 36.3799C209.62 36.2399 209.41 36.1099 208.95 36.1099C208.35 36.1099 207.66 36.4899 206.9 37.2499L195.64 49.2799L184.24 37.1899C183.53 36.4899 182.84 36.0999 182.24 36.0999C181.77 36.0999 181.57 36.2299 181.42 36.3699L181.34 36.4399C180.82 36.8799 180.78 37.2099 180.78 37.4899C180.78 37.8999 181.02 38.3799 181.5 38.9099L193.45 51.5999L180.53 65.3399C180.18 65.6899 180.06 65.9699 180.06 66.3599C180.06 66.6399 180.1 66.9699 180.62 67.4099C180.9 67.6399 181.21 67.7499 181.59 67.7499C181.97 67.7499 182.59 67.6499 183.42 66.8199L195.63 53.8499L195.64 53.8699Z" fill="#55EDB6"/>
<path d="M132.26 51.6C128.88 49.78 126.26 47.17 124.41 43.79C122.56 40.41 121.64 36.41 121.64 31.8V6.82C121.64 5.48 122.07 4.42 122.94 3.65C123.8 2.88 124.96 2.5 126.4 2.5C127.84 2.5 129 2.9 129.89 3.69C130.78 4.48 131.22 5.53 131.22 6.82V32.02C131.22 36.77 132.35 40.42 134.6 42.96C136.86 45.5 140.1 46.78 144.32 46.78C148.54 46.78 151.72 45.5 154 42.93C156.28 40.36 157.42 36.73 157.42 32.02V6.82C157.42 5.52 157.86 4.48 158.75 3.69C159.64 2.9 160.8 2.5 162.24 2.5C163.68 2.5 164.83 2.88 165.7 3.65C166.56 4.42 167 5.48 167 6.82V31.8C167 36.26 166.05 40.2 164.16 43.61C162.27 47.02 159.59 49.66 156.13 51.53C152.67 53.4 148.67 54.34 144.11 54.34C139.55 54.34 135.65 53.43 132.27 51.6H132.26Z" fill="#55EDB6"/>
<path d="M144.1 56.84C139.19 56.84 134.81 55.82 131.07 53.8C127.27 51.75 124.29 48.78 122.21 44.99C120.17 41.25 119.13 36.81 119.13 31.8V6.82C119.13 4.77 119.87 3.03 121.26 1.78C122.59 0.6 124.31 0 126.38 0C128.45 0 130.18 0.61 131.54 1.82C132.96 3.08 133.71 4.81 133.71 6.82V32.02C133.71 36.12 134.64 39.24 136.46 41.3C138.24 43.3 140.8 44.28 144.31 44.28C147.82 44.28 150.33 43.29 152.13 41.27C153.98 39.19 154.92 36.07 154.92 32.02V6.82C154.92 4.81 155.67 3.08 157.09 1.82C158.44 0.61 160.18 0 162.24 0C164.3 0 166.03 0.6 167.36 1.78C168.76 3.02 169.5 4.77 169.5 6.82V31.8C169.5 36.67 168.44 41.06 166.34 44.82C164.22 48.63 161.18 51.63 157.32 53.72C153.51 55.78 149.06 56.83 144.11 56.83L144.1 56.84ZM126.39 5C125.18 5 124.74 5.39 124.59 5.52C124.45 5.64 124.13 5.93 124.13 6.82V31.8C124.13 35.96 124.96 39.59 126.6 42.59C128.22 45.57 130.46 47.8 133.44 49.4C136.44 51.02 140.02 51.84 144.1 51.84C148.18 51.84 151.86 51 154.93 49.33C157.99 47.67 160.29 45.41 161.96 42.39C163.64 39.37 164.49 35.81 164.49 31.8V6.82C164.49 5.93 164.17 5.64 164.03 5.52C163.89 5.39 163.45 5 162.24 5C161.03 5 160.57 5.42 160.41 5.55C160.15 5.78 159.91 6.09 159.91 6.82V32.02C159.91 37.33 158.55 41.56 155.86 44.59C153.1 47.7 149.21 49.28 144.31 49.28C139.41 49.28 135.46 47.71 132.72 44.62C130.06 41.62 128.71 37.38 128.71 32.02V6.82C128.71 6.1 128.47 5.78 128.21 5.55C128.05 5.41 127.59 5 126.38 5H126.39Z" fill="#55EDB6"/>
</g>
<g clip-path="url(#clip3_312_465)">
<path d="M357.52 50.02C355.5 48.1 354.5 45.41 354.5 41.96V13.16C354.5 9.8 355.47 7.18 357.42 5.31C359.36 3.44 362.06 2.5 365.52 2.5H387.91C389.35 2.5 390.45 2.82 391.22 3.47C391.99 4.12 392.37 5.04 392.37 6.24C392.37 7.44 391.97 8.29 391.18 8.94C390.39 9.59 389.3 9.91 387.9 9.91H367.17C366.21 9.91 365.45 10.22 364.9 10.85C364.35 11.48 364.07 12.34 364.07 13.44V23.45H382.43C383.87 23.45 384.97 23.77 385.74 24.42C386.51 25.07 386.89 25.99 386.89 27.19C386.89 28.39 386.49 29.24 385.7 29.89C384.91 30.54 383.82 30.86 382.42 30.86H364.08V41.95C364.08 43.05 364.36 43.92 364.91 44.54C365.46 45.16 366.22 45.48 367.18 45.48H389.5C390.94 45.48 392.04 45.8 392.81 46.45C393.58 47.1 393.96 48.02 393.96 49.22C393.96 50.42 393.56 51.27 392.77 51.92C391.98 52.57 390.89 52.89 389.49 52.89H366.02C362.37 52.89 359.54 51.93 357.52 50.01V50.02Z" fill="#55EDB6"/>
<path d="M389.49 55.4H366.02C361.73 55.4 358.29 54.2 355.8 51.83C353.28 49.43 352 46.11 352 41.95V13.16C352 9.11 353.24 5.86 355.68 3.51C358.1 1.18 361.41 0 365.52 0H387.91C389.95 0 391.61 0.53 392.83 1.56C393.76 2.35 394.87 3.8 394.87 6.24C394.87 8.15 394.14 9.75 392.76 10.88C391.51 11.9 389.88 12.42 387.9 12.42H367.17C366.86 12.42 366.8 12.49 366.77 12.51C366.64 12.65 366.57 13 366.57 13.45V20.96H382.43C384.47 20.96 386.13 21.49 387.35 22.52C388.28 23.31 389.39 24.76 389.39 27.2C389.39 29.11 388.66 30.71 387.29 31.83C386.04 32.85 384.41 33.37 382.43 33.37H366.57V41.96C366.57 42.4 366.64 42.75 366.77 42.89C366.79 42.92 366.85 42.98 367.17 42.98H389.49C391.53 42.98 393.19 43.51 394.41 44.54C395.34 45.33 396.45 46.78 396.45 49.22C396.45 51.13 395.72 52.73 394.34 53.85C393.09 54.87 391.46 55.39 389.48 55.39L389.49 55.4ZM365.52 5C362.71 5 360.63 5.69 359.15 7.11C357.7 8.5 357 10.48 357 13.16V41.96C357 44.73 357.74 46.77 359.25 48.21C360.8 49.69 363.01 50.4 366.02 50.4H389.49C390.03 50.4 390.77 50.33 391.18 49.99C391.29 49.9 391.45 49.77 391.45 49.23C391.45 48.59 391.26 48.44 391.19 48.37C390.9 48.12 390.29 47.99 389.49 47.99H367.17C365.05 47.99 363.75 47.02 363.03 46.21C362.07 45.12 361.57 43.69 361.57 41.96V28.37H382.43C382.98 28.37 383.71 28.3 384.12 27.96C384.23 27.87 384.39 27.74 384.39 27.19C384.39 26.55 384.2 26.39 384.12 26.33C383.83 26.09 383.21 25.95 382.42 25.95H361.58V13.44C361.58 11.71 362.07 10.28 363.04 9.19C364.07 8.02 365.5 7.41 367.18 7.41H387.92C388.47 7.41 389.2 7.34 389.61 7C389.72 6.91 389.88 6.78 389.88 6.24C389.88 5.6 389.69 5.45 389.61 5.38C389.32 5.13 388.71 5 387.91 5H365.52Z" fill="#55EDB6"/>
<path d="M414.02 50.02C412 48.1 411 45.41 411 41.96V13.16C411 9.8 411.97 7.18 413.92 5.31C415.86 3.44 418.56 2.5 422.02 2.5H432.1C437.62 2.5 442.4 3.51 446.43 5.52C450.46 7.53 453.55 10.44 455.68 14.23C457.82 18.02 458.88 22.53 458.88 27.77C458.88 33.01 457.81 37.5 455.68 41.27C453.54 45.04 450.47 47.92 446.46 49.91C442.45 51.9 437.66 52.9 432.1 52.9H422.52C418.87 52.9 416.04 51.94 414.02 50.02ZM431.37 45.48C437.37 45.48 441.83 44.03 444.76 41.12C447.69 38.22 449.15 33.76 449.15 27.76C449.15 21.76 447.67 17.28 444.72 14.33C441.77 11.38 437.32 9.9 431.36 9.9H423.66C422.7 9.9 421.94 10.21 421.39 10.84C420.84 11.47 420.56 12.33 420.56 13.43V41.94C420.56 43.04 420.84 43.91 421.39 44.53C421.94 45.15 422.7 45.47 423.66 45.47H431.36L431.37 45.48Z" fill="#55EDB6"/>
<path d="M432.1 55.4H422.52C418.22 55.4 414.79 54.2 412.3 51.83C409.78 49.43 408.5 46.11 408.5 41.96V13.16C408.5 9.11 409.74 5.86 412.18 3.51C414.6 1.18 417.91 0 422.01 0H432.09C437.98 0 443.17 1.11 447.54 3.29C452.01 5.52 455.48 8.79 457.85 13.01C460.19 17.17 461.38 22.13 461.38 27.77C461.38 33.41 460.19 38.37 457.85 42.5C455.47 46.69 452.02 49.94 447.57 52.15C443.23 54.31 438.02 55.4 432.09 55.4H432.1ZM422.02 5C419.21 5 417.13 5.69 415.65 7.11C414.2 8.5 413.5 10.48 413.5 13.16V41.96C413.5 44.73 414.24 46.77 415.75 48.21C417.3 49.69 419.51 50.4 422.52 50.4H432.1C437.25 50.4 441.71 49.48 445.35 47.67C448.93 45.89 451.6 43.39 453.5 40.04C455.41 36.67 456.38 32.54 456.38 27.77C456.38 23 455.41 18.86 453.5 15.46C451.6 12.08 448.92 9.56 445.31 7.76C441.65 5.93 437.2 5 432.1 5H422.02ZM431.38 47.98H423.68C421.56 47.98 420.26 47.01 419.54 46.2C418.58 45.11 418.08 43.68 418.08 41.95V13.44C418.08 11.71 418.57 10.28 419.54 9.19C420.57 8.02 422 7.41 423.68 7.41H431.38C437.99 7.41 443.08 9.15 446.5 12.57C449.92 15.99 451.66 21.11 451.66 27.77C451.66 34.43 449.93 39.52 446.53 42.9C443.13 46.27 438.03 47.98 431.38 47.98ZM423.68 12.41C423.37 12.41 423.31 12.48 423.28 12.5C423.15 12.64 423.08 12.99 423.08 13.44V41.95C423.08 42.39 423.15 42.74 423.28 42.88C423.3 42.91 423.36 42.97 423.68 42.97H431.38C436.67 42.97 440.58 41.75 443.01 39.34C445.43 36.94 446.66 33.04 446.66 27.76C446.66 22.48 445.42 18.55 442.96 16.1C440.51 13.65 436.61 12.4 431.37 12.4H423.67L423.68 12.41Z" fill="#55EDB6"/>
<path d="M565.63 66.3801C565.63 67.5301 565.15 68.5201 564.19 69.3301C563.42 69.9501 562.56 70.2701 561.6 70.2701C560.3 70.2701 559.1 69.7201 558 68.6101L547.63 57.5201L537.19 68.6101C536.08 69.7101 534.89 70.2701 533.59 70.2701C532.63 70.2701 531.76 69.9601 531 69.3301C530.04 68.5101 529.56 67.5301 529.56 66.3801C529.56 65.3301 529.94 64.4101 530.71 63.6401L542.01 51.6201L531.64 40.6001C530.73 39.5901 530.27 38.5601 530.27 37.5001C530.27 36.3501 530.75 35.3601 531.71 34.5501C532.38 33.9301 533.22 33.6101 534.23 33.6101C535.53 33.6101 536.8 34.2301 538.05 35.4801L547.63 45.6301L557.13 35.4801C558.38 34.2301 559.65 33.6101 560.95 33.6101C561.96 33.6101 562.8 33.9201 563.47 34.5501C564.43 35.3701 564.91 36.3501 564.91 37.5001C564.91 38.5601 564.45 39.5901 563.54 40.6001L553.17 51.6201L564.47 63.6401C565.24 64.4101 565.62 65.3201 565.62 66.3801H565.63Z" fill="#55EDB6"/>
<path d="M561.6 72.7699C559.62 72.7699 557.82 71.9699 556.23 70.3799L547.62 61.1799L539.01 70.3299C537.37 71.9699 535.56 72.7699 533.59 72.7699C532.04 72.7699 530.64 72.2699 529.42 71.2699C527.86 69.9499 527.06 68.2699 527.06 66.3799C527.06 64.6699 527.71 63.1099 528.94 61.8799L538.58 51.6199L529.82 42.3199C528.45 40.8099 527.77 39.1999 527.77 37.5099C527.77 35.6399 528.56 33.9699 530.05 32.6899C531.17 31.6699 532.62 31.1299 534.23 31.1299C536.21 31.1299 538.08 32.0099 539.81 33.7299L547.61 41.9999L555.3 33.7899C557.09 31.9999 558.97 31.1299 560.94 31.1299C562.55 31.1299 563.99 31.6699 565.12 32.6899C566.61 33.9799 567.4 35.6399 567.4 37.5099C567.4 39.1999 566.72 40.7999 565.39 42.2799L556.6 51.6199L566.29 61.9299C567.47 63.1099 568.12 64.6699 568.12 66.3799C568.12 68.2699 567.32 69.9499 565.8 71.2399C564.53 72.2699 563.13 72.7699 561.59 72.7699H561.6ZM547.64 53.8699L559.83 66.8999C560.6 67.6699 561.21 67.7599 561.6 67.7599C561.99 67.7599 562.29 67.6499 562.62 67.3799C563.09 66.9799 563.13 66.6499 563.13 66.3699C563.13 65.9799 563.01 65.6999 562.71 65.3999L549.74 51.6099L561.72 38.8799C562.16 38.3899 562.41 37.9099 562.41 37.4999C562.41 37.2199 562.37 36.8899 561.85 36.4499L561.77 36.3799C561.62 36.2399 561.41 36.1099 560.95 36.1099C560.35 36.1099 559.66 36.4899 558.9 37.2499L547.64 49.2799L536.24 37.1899C535.53 36.4899 534.84 36.0999 534.24 36.0999C533.77 36.0999 533.57 36.2299 533.42 36.3699L533.34 36.4399C532.82 36.8799 532.78 37.2099 532.78 37.4899C532.78 37.8999 533.02 38.3799 533.5 38.9099L545.45 51.5999L532.53 65.3399C532.18 65.6899 532.06 65.9699 532.06 66.3599C532.06 66.6399 532.1 66.9699 532.62 67.4099C532.9 67.6399 533.21 67.7499 533.59 67.7499C533.97 67.7499 534.59 67.6499 535.42 66.8199L547.63 53.8499L547.64 53.8699Z" fill="#55EDB6"/>
<path d="M484.26 51.6C480.88 49.78 478.26 47.17 476.41 43.79C474.56 40.41 473.64 36.41 473.64 31.8V6.82C473.64 5.48 474.07 4.42 474.94 3.65C475.8 2.88 476.96 2.5 478.4 2.5C479.84 2.5 481 2.9 481.89 3.69C482.78 4.48 483.22 5.53 483.22 6.82V32.02C483.22 36.77 484.35 40.42 486.6 42.96C488.86 45.5 492.1 46.78 496.32 46.78C500.54 46.78 503.72 45.5 506 42.93C508.28 40.36 509.42 36.73 509.42 32.02V6.82C509.42 5.52 509.86 4.48 510.75 3.69C511.64 2.9 512.8 2.5 514.24 2.5C515.68 2.5 516.83 2.88 517.7 3.65C518.56 4.42 519 5.48 519 6.82V31.8C519 36.26 518.05 40.2 516.16 43.61C514.27 47.02 511.59 49.66 508.13 51.53C504.67 53.4 500.67 54.34 496.11 54.34C491.55 54.34 487.65 53.43 484.27 51.6H484.26Z" fill="#55EDB6"/>
<path d="M496.1 56.84C491.19 56.84 486.81 55.82 483.07 53.8C479.27 51.75 476.29 48.78 474.21 44.99C472.17 41.25 471.13 36.81 471.13 31.8V6.82C471.13 4.77 471.87 3.03 473.26 1.78C474.59 0.6 476.31 0 478.38 0C480.45 0 482.18 0.61 483.54 1.82C484.96 3.08 485.71 4.81 485.71 6.82V32.02C485.71 36.12 486.64 39.24 488.46 41.3C490.24 43.3 492.8 44.28 496.31 44.28C499.82 44.28 502.33 43.29 504.13 41.27C505.98 39.19 506.92 36.07 506.92 32.02V6.82C506.92 4.81 507.67 3.08 509.09 1.82C510.44 0.61 512.18 0 514.24 0C516.3 0 518.03 0.6 519.36 1.78C520.76 3.02 521.5 4.77 521.5 6.82V31.8C521.5 36.67 520.44 41.06 518.34 44.82C516.22 48.63 513.18 51.63 509.32 53.72C505.51 55.78 501.06 56.83 496.11 56.83L496.1 56.84ZM478.39 5C477.18 5 476.74 5.39 476.59 5.52C476.45 5.64 476.13 5.93 476.13 6.82V31.8C476.13 35.96 476.96 39.59 478.6 42.59C480.22 45.57 482.46 47.8 485.44 49.4C488.44 51.02 492.02 51.84 496.1 51.84C500.18 51.84 503.86 51 506.93 49.33C509.99 47.67 512.29 45.41 513.96 42.39C515.64 39.37 516.49 35.81 516.49 31.8V6.82C516.49 5.93 516.17 5.64 516.03 5.52C515.89 5.39 515.45 5 514.24 5C513.03 5 512.57 5.42 512.41 5.55C512.15 5.78 511.91 6.09 511.91 6.82V32.02C511.91 37.33 510.55 41.56 507.86 44.59C505.1 47.7 501.21 49.28 496.31 49.28C491.41 49.28 487.46 47.71 484.72 44.62C482.06 41.62 480.71 37.38 480.71 32.02V6.82C480.71 6.1 480.47 5.78 480.21 5.55C480.05 5.41 479.59 5 478.38 5H478.39Z" fill="#55EDB6"/>
</g>
<defs>
<clipPath id="clip0_312_465">
<rect width="216.13" height="72.77" fill="white" transform="translate(745 3)"/>
</clipPath>
<clipPath id="clip1_312_465">
<rect width="216.13" height="72.77" fill="white" transform="translate(1153 3)"/>
</clipPath>
<clipPath id="clip2_312_465">
<rect width="216.13" height="72.77" fill="white"/>
</clipPath>
<clipPath id="clip3_312_465">
<rect width="216.13" height="72.77" fill="white" transform="translate(352)"/>
</clipPath>
</defs>
</svg>
