<svg width="44" height="46" viewBox="0 0 44 46" fill="none" xmlns="http://www.w3.org/2000/svg">
<path d="M8.24706 27.6642H18.9991V34.0002H0.0390625V0.304199H8.24706V27.6642Z" fill="white"/>
<path d="M43.68 23.1522C43.68 25.1042 43.232 26.8962 42.336 28.5282C41.44 30.1282 40.064 31.4242 38.208 32.4162C36.352 33.4082 34.048 33.9042 31.296 33.9042H26.208V46.0002H18V12.3042H31.296C33.984 12.3042 36.256 12.7682 38.112 13.6962C39.968 14.6242 41.36 15.9042 42.288 17.5362C43.216 19.1682 43.68 21.0402 43.68 23.1522ZM30.672 27.3762C32.24 27.3762 33.408 27.0082 34.176 26.2722C34.944 25.5362 35.328 24.4962 35.328 23.1522C35.328 21.8082 34.944 20.7682 34.176 20.0322C33.408 19.2962 32.24 18.9282 30.672 18.9282H26.208V27.3762H30.672Z" fill="white"/>
</svg>
